<?xml version="1.0" standalone="no"?>
<!DOCTYPE svg PUBLIC "-//W3C//DTD SVG 1.1//EN" "http://www.w3.org/Graphics/SVG/1.1/DTD/svg11.dtd" >
<svg xmlns="http://www.w3.org/2000/svg" xmlns:xlink="http://www.w3.org/1999/xlink" version="1.1">
<metadata></metadata>
<defs>
<font id="voyagerlight_italic" horiz-adv-x="1847" >
<font-face units-per-em="2048" ascent="1604" descent="-444" />
<missing-glyph horiz-adv-x="567" />
<glyph unicode="&#xfb01;" horiz-adv-x="1247" d="M190 451l33 153h103l153 721q25 118 127 202.5t221 84.5q76 0 132 -36.5t81 -102.5l-155 -72q-29 53 -92 53q-53 0 -98.5 -37.5t-55.5 -91.5l-154 -721h580l117 549h161l-243 -1153h-162l94 451h-579l-95 -451h-159l94 451h-103zM1231 1505q9 44 47.5 75.5t81.5 31.5 q44 0 68.5 -31.5t15.5 -75.5t-47 -75t-82 -31q-43 0 -68 31t-16 75z" />
<glyph unicode="&#xfb02;" horiz-adv-x="1222" d="M188 451l33 153h101l153 721q25 118 127 202.5t221 84.5q77 0 133 -36.5t82 -102.5l-157 -72q-29 53 -93 53q-53 0 -98 -37.5t-55 -91.5l-154 -721h559l215 1006h166l-342 -1610h-166l95 451h-559l-95 -451h-159l94 451h-101z" />
<glyph unicode="&#xfb03;" horiz-adv-x="1970" d="M190 451l33 153h101l153 721q25 119 127.5 203t222.5 84q76 0 132 -36.5t81 -102.5l-155 -72q-29 53 -92 53q-54 0 -100 -37.5t-56 -91.5l-154 -721h564l153 721q25 118 127 202.5t221 84.5q77 0 133 -36.5t82 -102.5l-157 -72q-29 53 -93 53q-53 0 -98 -37.5t-55 -91.5 l-154 -721h580l117 549h161l-243 -1153h-162l94 451h-579l-95 -451h-159l94 451h-563l-95 -451h-159l94 451h-101zM1954 1505q9 44 47 75.5t82 31.5q43 0 68 -31.5t16 -75.5t-47.5 -75t-81.5 -31q-44 0 -68.5 31t-15.5 75z" />
<glyph unicode="&#xfb04;" horiz-adv-x="1947" d="M190 451l33 153h103l153 721q25 118 127 202.5t221 84.5q76 0 132 -36.5t81 -102.5l-155 -72q-29 53 -92 53q-53 0 -98.5 -37.5t-55.5 -91.5l-154 -721h562l153 721q25 119 127.5 203t222.5 84q76 0 132 -36.5t81 -102.5l-157 -72q-26 53 -90 53q-54 0 -100 -37.5 t-56 -91.5l-154 -721h559l215 1006h166l-342 -1610h-166l95 451h-559l-95 -451h-159l94 451h-561l-95 -451h-159l94 451h-103z" />
<glyph horiz-adv-x="0" />
<glyph horiz-adv-x="682" />
<glyph unicode=" "  horiz-adv-x="567" />
<glyph unicode="&#x09;" horiz-adv-x="567" />
<glyph unicode="&#xa0;" horiz-adv-x="567" />
<glyph unicode="!" horiz-adv-x="520" d="M178 104q11 44 47.5 75.5t79.5 31.5t67.5 -31.5t14.5 -75.5q-9 -43 -45.5 -73.5t-79.5 -30.5t-68 30.5t-16 73.5zM264 389l248 1172h162l-248 -1172h-162z" />
<glyph unicode="&#x22;" horiz-adv-x="915" d="M389 1171l283 392h164l-283 -392h-164zM674 1171l282 392h164l-282 -392h-164z" />
<glyph unicode="#" horiz-adv-x="1552" d="M125 0l326 500h-172l34 162h244l156 239h-199l35 162h270l328 500h158l-328 -500h328l325 500h158l-326 -500h185l-35 -162h-256l-158 -239h213l-35 -162h-284l-324 -500h-158l324 500h-326l-325 -500h-158zM715 662h325l158 239h-328z" />
<glyph unicode="$" horiz-adv-x="1060" d="M141 217l166 70q25 -62 83.5 -101t129.5 -39q130 0 239 86.5t136 217.5q20 92 -13.5 164t-107.5 110l-231 117q-95 47 -137 140.5t-19 201.5q30 143 142 250.5t253 134.5l33 153h160l-33 -155q140 -30 205 -160l-170 -70q-53 74 -143 74q-94 0 -176.5 -61.5 t-102.5 -153.5q-14 -67 7 -125.5t75 -85.5l244 -125q105 -54 156 -163t24 -240q-34 -162 -159 -291t-294 -170l-33 -158h-159l30 148q-211 22 -305 231z" />
<glyph unicode="%" horiz-adv-x="1587" d="M371 0l1020 1563h157l-1020 -1563h-157zM403 1317q22 101 110 173.5t189 72.5t157 -72.5t34 -173.5q-22 -102 -108 -174t-187 -72t-159 72.5t-36 173.5zM539 1317q-9 -46 16.5 -78.5t71.5 -32.5q44 0 83 32.5t48 78.5q9 44 -16.5 76t-69.5 32q-46 0 -85 -32t-48 -76z M1022 246q22 101 110 173.5t189 72.5t157.5 -72.5t34.5 -173.5q-22 -102 -108.5 -174t-187.5 -72t-159 72.5t-36 173.5zM1157 246q-9 -46 16.5 -78.5t71.5 -32.5t85 32.5t48 78.5q9 45 -17 77.5t-71 32.5t-84.5 -32.5t-48.5 -77.5z" />
<glyph unicode="&#x26;" horiz-adv-x="1185" d="M202.5 294.5q-21.5 87.5 0.5 186.5q35 164 163.5 294t295.5 171l22 6l-137 611h756l-35 -160h-512l321 -1403h-493q-97 0 -178.5 38t-131.5 103.5t-71.5 153zM365 481q-28 -132 45.5 -225.5t205.5 -93.5h248l-143 639l-19 -2q-119 -19 -215 -109.5t-122 -208.5z" />
<glyph unicode="'" horiz-adv-x="655" d="M389 1171l283 392h164l-283 -392h-164z" />
<glyph unicode="(" horiz-adv-x="743" d="M199 297l225 1055q41 193 203 331t354 146l-31 -152q-130 -8 -238.5 -101.5t-136.5 -223.5l-225 -1055q-28 -129 42 -222.5t196 -101.5l-33 -153q-124 6 -215 71t-129 172.5t-12 233.5z" />
<glyph unicode=")" horiz-adv-x="739" d="M98 -180l33 153q129 8 237 101.5t136 222.5l225 1055q28 129 -41.5 222t-195.5 101l32 154q189 -8 293 -146.5t64 -330.5l-226 -1055q-40 -192 -202.5 -330.5t-354.5 -146.5z" />
<glyph unicode="*" horiz-adv-x="1040" d="M346 1085l37 170h254l-80 222l164 84l82 -220l172 220l133 -84l-174 -222h254l-37 -170h-254l80 -219l-168 -86l-80 221l-174 -221l-129 86l174 219h-254z" />
<glyph unicode="+" horiz-adv-x="1150" d="M289 500l35 164h307l65 309h164l-65 -309h309l-35 -164h-309l-66 -310h-164l66 310h-307z" />
<glyph unicode="," horiz-adv-x="516" d="M176 -102l88 104l-26 6q-33 7 -48.5 34.5t-7.5 63.5q9 43 44.5 73t76.5 30q43 0 67 -30t15 -73q-9 -35 -33 -63l-125 -145h-51z" />
<glyph unicode="-" horiz-adv-x="1048" d="M240 496l34 168h781l-35 -168h-780z" />
<glyph unicode="." horiz-adv-x="520" d="M178 104q9 43 46.5 74t80.5 31q44 0 68.5 -31t15.5 -74t-46 -73.5t-81 -30.5q-43 0 -68 30.5t-16 73.5z" />
<glyph unicode="/" horiz-adv-x="1032" d="M61 0l1022 1563h197l-1022 -1563h-197z" />
<glyph unicode="0" horiz-adv-x="1255" d="M238 473l129 614q43 202 216.5 346t374.5 144q177 0 289 -115q68 -71 93.5 -169.5t2.5 -205.5l-129 -614q-43 -202 -216.5 -345.5t-376.5 -143.5q-132 0 -230 66.5t-139.5 179t-13.5 243.5zM371 395l788 918l-14 16q-79 98 -217 98q-140 0 -260.5 -99.5t-151.5 -240.5z M422 248l14 -17q76 -98 215 -98t261 100t153 240l147 694z" />
<glyph unicode="1" horiz-adv-x="628" d="M276 -2l302 1415h-191l86 148h299l-332 -1563h-164z" />
<glyph unicode="2" horiz-adv-x="1198" d="M41 0l989 877q101 98 125 215q30 140 -49 237.5t-213 97.5q-138 0 -258.5 -98.5t-149.5 -236.5q-20 -89 9 -167t98 -122l-127 -111q-85 68 -119 174t-8 226q27 131 115.5 242t214 176t256.5 65q168 0 281.5 -111t107.5 -280v-2q0 -38 -10 -90q-19 -88 -68.5 -171 t-122.5 -149l-704 -627h700l-31 -145h-1036z" />
<glyph unicode="3" horiz-adv-x="1196" d="M203 438h147q-12 -93 27 -168t117 -112q56 -27 124 -27q138 0 257.5 98.5t148.5 237.5q28 136 -45.5 235t-216.5 99h-62l361 612h-551l31 146h751l-370 -627l24 -10q135 -51 197.5 -176.5t30.5 -278.5q-43 -201 -214.5 -342t-371.5 -141q-132 0 -227.5 64.5t-136 168 t-21.5 221.5z" />
<glyph unicode="4" horiz-adv-x="1245" d="M86 213l811 1350h164l-727 -1207h540l48 213h147l-47 -213h199l-29 -143h-199l-45 -213h-147l45 213h-760z" />
<glyph unicode="5" horiz-adv-x="1200" d="M193 436h147q-17 -129 60 -217t208 -88q138 0 258.5 98t149.5 236q29 139 -48.5 237.5t-215.5 98.5h-367l446 760h465l-30 -148h-377l-273 -465h166q131 0 228.5 -64.5t139 -175.5t13.5 -243q-43 -200 -214.5 -341.5t-370.5 -141.5q-121 0 -217 59t-142.5 164t-25.5 231z " />
<glyph unicode="6" horiz-adv-x="1251" d="M236 467q17 90 63 164l549 930h143l-383 -654l62 19q84 24 151 24q131 0 228.5 -65t139 -176t13.5 -242q-43 -201 -214.5 -342t-371.5 -141q-194 0 -308.5 140t-71.5 343zM385 467q-29 -139 47.5 -237.5t214.5 -98.5t258.5 98.5t149.5 237.5q29 138 -48.5 236t-215.5 98 t-257.5 -98t-148.5 -236z" />
<glyph unicode="7" horiz-adv-x="911" d="M72 0l837 1417h-446l31 146h659l-922 -1563h-159z" />
<glyph unicode="8" horiz-adv-x="1187" d="M201 471q27 121 106.5 229.5t194.5 173.5l33 19l-19 27q-92 113 -57 272q34 158 170.5 270.5t294.5 112.5q160 0 248.5 -112.5t54.5 -270.5q-34 -159 -172 -272l-33 -27l27 -19q86 -69 119.5 -175.5t7.5 -227.5q-43 -203 -215.5 -346t-374.5 -143q-132 0 -230.5 65.5 t-140.5 178t-14 245.5zM350 471q-29 -140 49 -239t217 -99q140 0 260.5 99.5t149.5 238.5q31 139 -47.5 238.5t-218.5 99.5q-139 0 -259 -99t-151 -239zM608 1192q-20 -97 34 -165.5t151 -68.5t179.5 68.5t102.5 165.5q22 96 -32.5 164.5t-151.5 68.5t-179 -68t-104 -165z " />
<glyph unicode="9" horiz-adv-x="1243" d="M369 1092q43 201 214 343t371 142q128 0 225.5 -64t140.5 -176t15 -245q-20 -90 -63 -164l-549 -930h-145l385 653l-60 -18q-83 -25 -153 -25q-131 0 -228.5 65t-139 176.5t-13.5 242.5zM518 1092q-29 -138 47.5 -236t214.5 -98t258.5 98t149.5 236q29 139 -48.5 237 t-215.5 98t-257.5 -98t-148.5 -237z" />
<glyph unicode=":" horiz-adv-x="518" d="M176 94q9 43 47 74t82 31q43 0 67 -31t15 -74t-46.5 -73.5t-80.5 -30.5q-44 0 -68.5 30.5t-15.5 73.5zM379 1049q9 43 47 73.5t82 30.5q43 0 67 -30.5t15 -73.5t-46.5 -74t-80.5 -31q-44 0 -68.5 31t-15.5 74z" />
<glyph unicode=";" horiz-adv-x="520" d="M178 -102l88 104l-26 6q-33 7 -48.5 34.5t-7.5 63.5q9 43 44.5 73t76.5 30q43 0 67 -30t15 -73q-8 -31 -31 -61l-127 -147h-51zM381 1059q9 43 46.5 73.5t80.5 30.5q44 0 68.5 -30.5t15.5 -73.5t-46 -74t-81 -31q-43 0 -68 31t-16 74z" />
<glyph unicode="&#x3c;" horiz-adv-x="1595" d="M295 580l1313 505l-35 -161l-889 -344l743 -342l-34 -164z" />
<glyph unicode="=" horiz-adv-x="1183" d="M260 289l37 168h780l-37 -168h-780zM348 702l37 168h780l-37 -168h-780z" />
<glyph unicode="&#x3e;" horiz-adv-x="1595" d="M233 74l35 164l891 342l-745 344l35 161l1099 -505z" />
<glyph unicode="?" horiz-adv-x="1232" d="M365 1090q43 202 215.5 345.5t373.5 143.5q171 0 286.5 -112.5t109.5 -284.5q0 -46 -9 -92q-43 -188 -194 -324l-285 -254l-26 -123h-164l39 186l344 306q98 88 123 209q29 138 -48.5 231.5t-209.5 93.5q-134 0 -249 -95t-143 -230q-20 -89 10 -166.5t99 -118.5 l-139 -123q-90 68 -125.5 176t-7.5 232zM586 104q11 44 47.5 75.5t79.5 31.5q44 0 68 -31.5t14 -75.5q-9 -43 -45 -73.5t-80 -30.5q-43 0 -68 30.5t-16 73.5z" />
<glyph unicode="@" horiz-adv-x="1902" d="M289 477.5q-11 108.5 12 231.5q37 172 142.5 332.5t249 277t318.5 186.5t345 70q200 0 346 -96t206.5 -262.5t18.5 -364.5q-46 -215 -182 -391v-2q-53 -74 -132 -119t-157 -45t-128.5 43t-59.5 111l-4 28l-31 -16q-123 -68 -227 -68q-150 0 -234.5 98.5t-52.5 249.5 q37 172 189.5 298t324.5 126q125 -8 178 -51l29 -22l14 47h158l-176 -584q-9 -46 9.5 -74t59.5 -28q60 0 103 49l2 2l2 4q2 3 4 4l2 4q111 144 149 313q34 161 -14.5 296t-166.5 213.5t-281 78.5q-183 0 -363.5 -94.5t-311 -255.5t-169.5 -346q-33 -160 16.5 -293 t168.5 -210t280 -77q156 0 315 72l57 -125q-208 -102 -424 -102q-119 0 -222.5 36t-178 101t-124 155.5t-60.5 199zM883 766q-19 -90 29 -152.5t139 -62.5q94 0 179 66.5t113 160.5q21 97 -22.5 164.5t-138.5 67.5q-97 0 -187 -73t-112 -171z" />
<glyph unicode="A" horiz-adv-x="1533" d="M59 0l1047 1606l369 -1606h-166l-49 215h-895l-140 -215h-166zM479 391h740l-193 838z" />
<glyph unicode="B" horiz-adv-x="1456" d="M178 0l332 1563h487q103 0 179 -51.5t108 -139.5q19 -52 19 -109q0 -39 -9 -81q-33 -133 -102 -207l-23 -23l25 -8q149 -43 219 -172q47 -86 47 -187q0 -50 -12 -104q-27 -131 -114.5 -241.5t-212 -175t-255.5 -64.5h-688zM373 162h526q132 0 246.5 93.5t142.5 225.5 q8 37 8 71q0 87 -54 155q-74 94 -206 94h-526zM543 963h325q91 0 169.5 64.5t97.5 154.5q6 26 6 49q-1 60 -37 106q-50 64 -141 64h-326z" />
<glyph unicode="C" horiz-adv-x="1536" d="M279 584q-2 24 -2 49q0 74 18 149q33 157 127 303t223 254.5t291 174t324 65.5q145 0 271 -52.5t216 -148.5l-129 -131q-68 81 -170.5 123.5t-222.5 42.5q-137 0 -268.5 -54t-231 -142.5t-170.5 -202t-96 -232.5q-14 -68 -14 -132q-1 -95 31 -182q54 -146 181.5 -232 t298.5 -86q174 0 330 81q73 36 133 84l74 -131q-131 -97 -278 -148.5t-293 -51.5q-115 0 -215.5 31.5t-174.5 86.5t-131.5 130.5t-85.5 164.5t-36 187z" />
<glyph unicode="D" horiz-adv-x="1468" d="M178 0l330 1561h389q127 0 238 -40t190.5 -111t132.5 -169q54 -99 66 -215q4 -38 4 -76q0 -82 -17 -170q-44 -211 -186.5 -391t-344.5 -284.5t-413 -104.5h-389zM373 162h227q126 0 251 49t225.5 131.5t173.5 197t100 240.5q15 69 15 133q0 93 -31 178 q-52 143 -177 226.5t-293 83.5h-227z" />
<glyph unicode="E" horiz-adv-x="1300" d="M154 0l331 1565h4h1002l-35 -162h-844l-94 -442h631l-33 -160h-631l-137 -641h844l-33 -160h-1005z" />
<glyph unicode="F" horiz-adv-x="1304" d="M182 0l332 1563h1006l-35 -162h-844l-94 -440h631l-33 -160h-631l-170 -801h-162z" />
<glyph unicode="G" horiz-adv-x="1656" d="M295 782q44 210 189.5 393.5t353 293.5t422.5 110q146 0 271 -52t216 -149l-127 -131q-152 166 -395 166q-138 0 -270 -54.5t-231.5 -143.5t-169.5 -202t-95 -231q-14 -68 -14 -132q0 -95 31 -182q54 -146 181.5 -232t298.5 -86q121 0 242 42.5t223 124.5l11 7l59 274 h-412l35 164h576l-109 -504q-161 -133 -321 -203.5t-338 -70.5q-97 0 -185 23t-157 64t-126.5 98.5t-94.5 127t-59 149.5q-23 77 -23 160q0 85 18 176z" />
<glyph unicode="H" horiz-adv-x="1449" d="M178 0l332 1563h162l-129 -600h772l129 600h162l-332 -1563h-162l170 803h-772l-170 -803h-162z" />
<glyph unicode="I" horiz-adv-x="921" d="M141 0l33 160h238l264 1243h-238l35 160h637l-35 -160h-237l-265 -1243h238l-33 -160h-637z" />
<glyph unicode="J" horiz-adv-x="983" d="M137 348h160q-3 -17 -3 -33q0 -66 42 -112q53 -58 137 -58q92 0 169.5 64.5t96.5 155.5l222 1036h-406l35 162h565l-256 -1198q-32 -157 -167.5 -269t-293.5 -112q-72 0 -134 28t-103.5 76t-59.5 116q-10 38 -10 79q0 32 6 65z" />
<glyph unicode="K" horiz-adv-x="1308" d="M178 0l332 1563h162l-185 -869l813 869h224l-598 -637l307 -926h-205l-252 766l-354 -379l-82 -387h-162z" />
<glyph unicode="L" horiz-adv-x="1058" d="M141 0l332 1563h162l-299 -1403h663l-32 -160h-826z" />
<glyph unicode="M" horiz-adv-x="1841" d="M176 0l340 1606l547 -967l954 967l-340 -1606h-159l239 1137l-751 -764l-431 764l-239 -1137h-160z" />
<glyph unicode="N" horiz-adv-x="1480" d="M154 0l342 1610l770 -1213l247 1168h162l-342 -1610l-770 1214l-248 -1169h-161z" />
<glyph unicode="O" d="M291 780q35 162 129.5 309.5t224 254.5t290.5 170t322 63q129 0 242.5 -40.5t194.5 -113t136 -172.5t67 -219q4 -39 4 -79q0 -83 -17 -173q-34 -161 -128.5 -308t-223.5 -253.5t-290 -169.5t-322 -63q-215 0 -376 106q-162 107 -230 290q-41 110 -41 233q0 80 18 165z M455 780q-14 -68 -15 -133q0 -96 33 -183q54 -145 182 -229.5t299 -84.5t334.5 84.5t279.5 229.5t152 316q14 72 14 138q0 32 -4 62q-10 94 -52.5 173.5t-107 137.5t-154.5 90t-193 32q-171 0 -334.5 -84.5t-280 -230.5t-153.5 -318z" />
<glyph unicode="P" horiz-adv-x="1234" d="M178 0l330 1561h387q157 0 274 -78q117 -77 167 -211q30 -80 29 -169q0 -59 -13 -122q-24 -114 -92.5 -221t-162 -186t-211.5 -127t-237 -48h-225l-84 -399h-162zM459 561h225q125 0 246 70q101 58 170.5 151t91.5 199q10 48 10 92q0 115 -70 205q-97 124 -270 123h-225z " />
<glyph unicode="Q" horiz-adv-x="1804" d="M279 529q-4 40 -4 82q0 81 16 169q35 162 129.5 309.5t224 254.5t290.5 170t322 63q130 0 243.5 -40.5t194.5 -113t135.5 -172.5t66.5 -219q4 -39 4 -79q0 -83 -17 -173q-34 -160 -125 -305.5t-229 -257.5l-12 -12l98 -219h-203l-53 116l-19 -10q-203 -108 -421 -108 q-129 0 -242.5 40.5t-195 113.5t-136 173t-67.5 218zM455 780q-14 -68 -14 -133q0 -96 32 -184q54 -146 182 -231t299 -85q162 0 322 80l22 11l-147 319h203l98 -215l23 20q198 186 245 418q14 71 14 138q0 31 -4 62q-9 94 -52 173.5t-107.5 137t-154.5 90t-193 32.5 q-128 0 -256 -50.5t-230.5 -135.5t-178 -202t-103.5 -245z" />
<glyph unicode="R" horiz-adv-x="1220" d="M143 0l330 1561h387q158 0 276 -78q118 -77 167 -211q29 -80 29 -168q0 -59 -13 -123q-31 -148 -128.5 -276.5t-238.5 -208.5l-18 -13l205 -483h-195l-178 420l-12 -4q-80 -17 -140 -17h-225l-84 -399h-162zM424 561h225q124 0 248 70q100 59 169 151.5t91 198.5 q10 48 10 92q0 115 -70 205q-97 124 -270 123h-225z" />
<glyph unicode="S" horiz-adv-x="1060" d="M133 219l164 68q74 -137 215 -137q130 0 239 84.5t136 214.5v2q7 33 7 63q0 54 -22 100q-34 74 -106 111l-231 119q-91 48 -135 140q-28 60 -29 126q0 35 8 72q35 165 171.5 280t299.5 115q97 0 174 -45.5t115 -124.5l-170 -70q-52 76 -146 76t-175 -62t-101 -155 q-6 -28 -6 -53q0 -38 13 -71q22 -56 75 -87l243 -123q146 -75 183 -241q6 -38 6 -75q0 -48 -10 -95q-27 -127 -113.5 -235t-207.5 -170t-245 -62q-121 0 -221.5 64.5t-130.5 170.5z" />
<glyph unicode="T" horiz-adv-x="1251" d="M438 1403l35 160h1012l-35 -160h-426l-297 -1403h-160l297 1403h-426z" />
<glyph unicode="U" horiz-adv-x="1337" d="M262 473l232 1090h161l-231 -1090q-8 -35 -8 -67q0 -91 62 -161q82 -95 222 -95q142 0 265.5 95t152.5 228l232 1090h161l-231 -1090q-43 -201 -222.5 -344t-391.5 -143q-138 0 -241 65.5t-147 177.5q-27 68 -27 144q0 49 11 100z" />
<glyph unicode="V" horiz-adv-x="1536" d="M389 1561h166l283 -1229l802 1229h166l-1048 -1606z" />
<glyph unicode="W" horiz-adv-x="2160" d="M369 1563h170l286 -1231l349 532l-162 699h168l288 -1231l813 1231h168l-1060 -1608l-168 721l-476 -721z" />
<glyph unicode="X" horiz-adv-x="1488" d="M86 0l750 825l-359 738h193l280 -580l531 580h190l-672 -738l400 -825h-189l-327 670l-607 -670h-190z" />
<glyph unicode="Y" horiz-adv-x="1396" d="M381 1563h172l260 -1014l696 1014h170l-815 -1194l-4 -4l-76 -365h-170l76 365z" />
<glyph unicode="Z" horiz-adv-x="1230" d="M90 0l1024 1403h-608l35 160h872l-1026 -1403h758l-33 -160h-1022z" />
<glyph unicode="[" horiz-adv-x="698" d="M182 -16l426 2009h166h168l-35 -168h-168l-356 -1673h168l-35 -168h-168h-166z" />
<glyph unicode="\" horiz-adv-x="991" d="M393 1563h158l356 -1563h-157z" />
<glyph unicode="]" horiz-adv-x="696" d="M182 -16l35 168h166l356 1673h-166l35 168h334l-426 -2009h-334z" />
<glyph unicode="^" horiz-adv-x="899" d="M455 1462l379 391l210 -391h-170l-90 166l-159 -166h-170z" />
<glyph unicode="_" horiz-adv-x="1863" d="M39 0l35 166h1784l-35 -166h-1784z" />
<glyph unicode="`" horiz-adv-x="944" d="M694 2095h164l211 -391h-164z" />
<glyph unicode="a" horiz-adv-x="1445" d="M226 350q-12 52 -12 106q0 61 15 126q34 162 143 300t263.5 218t316.5 80q219 0 365 -152l35 -37l30 142h158l-240 -1133h-157l37 174l-52 -39q-199 -149 -430 -149q-122 0 -222.5 46.5t-162 128t-87.5 189.5zM387 582q-10 -50 -11 -96q0 -120 74 -214q100 -128 281 -129 q177 0 330.5 120.5t200.5 295.5l8 47q6 39 6 75q0 127 -78 221q-101 120 -278 120q-119 0 -233 -58.5t-194.5 -160t-105.5 -221.5z" />
<glyph unicode="b" horiz-adv-x="1470" d="M156 0l340 1608h157l-131 -617l51 37q212 152 420 152h8q162 0 283 -80t172 -218q31 -83 31 -174q0 -61 -14 -126q-34 -162 -143.5 -299.5t-264.5 -217t-317 -79.5q-108 0 -203.5 39t-159.5 110l-35 39l-37 -174h-157zM432 559q-6 -39 -6 -75q0 -126 78 -220 q101 -120 276 -121q120 0 234.5 59t195 160t105.5 220q10 48 10 94q0 68 -22 128q-37 102 -125.5 160t-208.5 58q-115 0 -225.5 -55t-191.5 -150.5t-112 -210.5z" />
<glyph unicode="c" horiz-adv-x="1132" d="M224 404q-2 25 -2 51q0 62 11 127q24 116 93.5 225t165.5 191.5t219 132t247 49.5q187 0 316 -105l-123 -125q-93 72 -225 72q-95 0 -187 -37.5t-161.5 -99.5t-119 -141t-67.5 -162q-10 -47 -10 -91q0 -66 22 -127q37 -102 126 -162.5t208 -60.5q132 0 258 72l70 -125 q-174 -104 -360 -104q-105 0 -193 33.5t-146 90.5t-97 133.5t-45 162.5z" />
<glyph unicode="d" horiz-adv-x="1458" d="M228 350q-12 52 -12 106q0 61 15 126q34 162 143 300t263.5 218t316.5 80q219 0 365 -152l35 -37l131 617h157l-339 -1608h-158l37 174l-52 -39q-199 -149 -430 -149q-122 0 -222.5 46.5t-162 128t-87.5 189.5zM389 582q-10 -50 -11 -96q0 -120 74 -214 q100 -128 281 -129q115 0 226 55t192.5 150.5t112.5 210.5l8 47q6 39 6 74q0 126 -79 221q-102 121 -277 121q-119 0 -233 -58.5t-194.5 -160t-105.5 -221.5z" />
<glyph unicode="e" horiz-adv-x="1413" d="M231 582q34 159 142 296.5t263 219.5t318 82q234 0 373 -158q73 -86 99 -201q13 -57 12 -116q0 -60 -13 -123q-10 -49 -39 -121h-1007l8 -43q20 -126 116 -200.5t230 -74.5q132 0 258 72l70 -127q-173 -102 -361 -102q-162 0 -282.5 80t-170.5 218q-30 82 -30 172 q0 61 14 126zM395 608h879l2 29q1 17 1 33q0 144 -89 242q-99 110 -266 110q-171 0 -315 -111t-201 -274z" />
<glyph unicode="f" horiz-adv-x="718" d="M190 449l33 153h103l153 719q25 119 125.5 203t218.5 84q75 0 132.5 -37.5t82.5 -102.5l-157 -71q-25 51 -90 51q-53 0 -98.5 -37.5t-55.5 -89.5l-154 -719h199l-33 -153h-198l-95 -449h-157l94 449h-103z" />
<glyph unicode="g" horiz-adv-x="1462" d="M229 349q-13 52 -13 108q0 61 15 125q34 162 143.5 300t264.5 218t317 80q110 0 204.5 -39.5t160.5 -112.5l33 -37l30 142h160l-211 -996q-34 -158 -142.5 -295.5t-264.5 -220t-318 -82.5q-180 0 -313 105l123 127q93 -72 223 -72q112 0 224 54t195.5 152t108.5 214 l11 53l-47 -37q-97 -72 -209 -111.5t-222 -39.5q-122 0 -223 47t-162.5 128t-87.5 190zM391 582q-10 -50 -10 -96q0 -121 73 -214q100 -129 281 -129q112 0 223.5 54.5t194.5 151.5t111 212l8 45q6 39 6 75q0 125 -78 219q-101 122 -276 122q-119 0 -233 -58.5t-194.5 -160 t-105.5 -221.5z" />
<glyph unicode="h" horiz-adv-x="1269" d="M156 0l340 1608h161l-116 -553l39 24q154 99 315 99q80 0 150 -25t120 -70t83.5 -107t41.5 -135q2 -24 2 -50q0 -51 -10 -105l-145 -686h-164l145 686q8 37 8 71q0 91 -55 161q-75 96 -211 96q-135 0 -252 -96.5t-145 -231.5l-146 -686h-161z" />
<glyph unicode="i" horiz-adv-x="475" d="M164 0l246 1159h161l-245 -1159h-162zM459 1499q9 43 46.5 74t80.5 31q44 0 68 -31q18 -23 19 -52q0 -11 -3 -22q-9 -43 -47 -73.5t-82 -30.5q-43 1 -67 31q-17 22 -17 50q0 11 2 23z" />
<glyph unicode="j" horiz-adv-x="497" d="M-258 -322l160 72q25 -51 90 -51q54 0 99 37t56 90l285 1335h158l-285 -1335q-25 -119 -125.5 -203t-220.5 -84q-75 0 -133 37t-84 102zM481 1501q9 43 46.5 74t80.5 31q44 0 68 -31q18 -23 18 -52q0 -10 -2 -22q-9 -44 -47 -75t-82 -31q-43 0 -67 31q-17 23 -17 52 q0 11 2 23z" />
<glyph unicode="k" horiz-adv-x="1105" d="M156 0l340 1606h159l-217 -1020l557 561h199l-518 -522l-14 -15l405 -610h-197l-325 492l-160 -160l-70 -332h-159z" />
<glyph unicode="l" horiz-adv-x="452" d="M143 0l340 1608h166l-340 -1608h-166z" />
<glyph unicode="m" horiz-adv-x="1894" d="M158 0l239 1133h158l-10 -54l43 27q124 74 260 74q98 0 181.5 -43.5t125.5 -120.5l12 -25l27 25q175 164 377 164q119 0 208 -59t127 -161q22 -60 21 -126q0 -46 -10 -95l-156 -739h-157l155 739q7 34 7 65q0 76 -46 136q-65 84 -182 84t-217.5 -83t-126.5 -202 l-156 -739h-157l155 739q7 34 7 65q0 76 -46 136q-65 84 -182 84t-217.5 -83t-126.5 -202l-156 -739h-157z" />
<glyph unicode="n" horiz-adv-x="1271" d="M143 0l240 1133h158l-17 -82l45 30q138 96 318 99q133 0 232 -66t141 -180q25 -68 25 -143q0 -50 -11 -103l-146 -688h-157l145 688q8 38 8 73q0 92 -56 164q-76 99 -214 99q-139 0 -259 -99t-149 -237l-145 -688h-158z" />
<glyph unicode="o" horiz-adv-x="1411" d="M229 349q-13 52 -13 108q0 60 15 125q34 162 143.5 300t264.5 218t317 80q161 0 281.5 -80t170.5 -218q30 -82 30 -174q0 -61 -13 -126q-34 -162 -143.5 -300t-264 -218t-315.5 -80q-122 0 -223 47t-162.5 128t-87.5 190zM389 582q-10 -48 -11 -93q0 -67 23 -127 q37 -101 125.5 -160t208.5 -59q182 0 338.5 129t194.5 310q10 50 10 96q0 122 -72 216q-100 128 -282 128q-120 0 -234.5 -58.5t-195 -160t-105.5 -221.5z" />
<glyph unicode="p" horiz-adv-x="1431" d="M59 -446l336 1579h158l-31 -142l51 37q212 152 423 152h8q161 0 281.5 -80t170.5 -218q31 -82 31 -174q0 -61 -14 -126q-34 -162 -143.5 -300t-264 -218t-315.5 -80q-109 0 -205 39.5t-160 111.5l-35 39l-133 -620h-158zM432 559q-6 -39 -6 -75q0 -127 78 -220 q101 -121 278 -121q182 0 338.5 129t194.5 310q10 50 10 96q0 122 -73 216q-100 128 -281 128q-177 0 -331 -121t-200 -295z" />
<glyph unicode="q" horiz-adv-x="1460" d="M229 349q-13 52 -13 108q0 61 15 125q34 162 143.5 300t264.5 218t317 80q217 0 363 -152l35 -37l30 142h158l-336 -1579h-157l133 620l-52 -39q-98 -73 -209 -112t-219 -39q-122 0 -223 47t-162.5 128t-87.5 190zM389 582q-10 -48 -10 -93q0 -67 22 -127 q37 -101 125.5 -160t208.5 -59q115 0 225.5 55t191.5 150.5t112 210.5l8 47q6 38 6 73q0 127 -79 222q-101 121 -275 121q-120 0 -234.5 -58.5t-195 -160t-105.5 -221.5z" />
<glyph unicode="r" horiz-adv-x="679" d="M143 0l240 1133h156l-17 -80l45 30q130 87 289 97l-33 -156q-131 -9 -241 -105t-136 -225l-147 -694h-156z" />
<glyph unicode="s" horiz-adv-x="858" d="M125 143l160 72q46 -72 141 -72q86 0 159.5 60.5t92.5 146.5q4 21 4 41q0 37 -14 70q-22 51 -72 76l-201 104q-63 41 -88 107q-15 40 -15 84q0 30 7 61q26 120 127.5 203.5t220.5 83.5q77 0 134.5 -37t82.5 -101l-159 -71q-22 51 -91 51q-54 0 -99.5 -37.5t-57.5 -91.5 q-2 -13 -2 -25q-1 -26 9 -48q14 -32 46 -44l184 -96q78 -43 115 -115q35 -56 35 -134q0 -38 -8 -81q-32 -152 -162 -259t-281 -107q-90 0 -161.5 42.5t-106.5 116.5z" />
<glyph unicode="t" horiz-adv-x="684" d="M197 0l211 999h-105l35 164h104l95 443h165l-94 -443h207l-35 -164h-207l-211 -999h-165z" />
<glyph unicode="u" horiz-adv-x="1286" d="M250 475l145 688h156l-145 -688q-8 -38 -8 -72q0 -92 56 -164q78 -98 216 -98t257 98t148 236l146 688h155l-246 -1163h-155l22 113l-47 -29q-148 -100 -313 -100q-134 0 -233 66q-98 66 -140 179q-25 67 -25 142q0 50 11 104z" />
<glyph unicode="v" horiz-adv-x="1122" d="M307 1163h164l170 -817l516 817h164l-762 -1204z" />
<glyph unicode="w" horiz-adv-x="1830" d="M307 1161h168l176 -817l502 778l170 -778l524 817h168l-774 -1204l-170 776l-502 -776z" />
<glyph unicode="x" horiz-adv-x="1161" d="M63 0l551 614l-260 549h193l192 -407l363 407h192l-491 -549l293 -614h-193l-223 475l-424 -475h-193z" />
<glyph unicode="y" horiz-adv-x="1280" d="M221 -442l350 524l-266 1081h176l221 -889l596 889h177l-1076 -1605h-178z" />
<glyph unicode="z" horiz-adv-x="960" d="M55 0l750 1012h-422l31 151h676l-750 -1009h567l-30 -154h-822z" />
<glyph unicode="{" horiz-adv-x="1017" d="M274 735l39 180l344 140l64 297q40 192 202.5 330.5t354.5 146.5l-31 -152q-131 -9 -239 -102.5t-136 -222.5l-84 -394l-331 -133l274 -135l-84 -393q-28 -129 42 -222.5t196 -101.5l-33 -153q-124 6 -215 71t-129 172.5t-12 233.5l63 299z" />
<glyph unicode="|" horiz-adv-x="700" d="M254 -59l428 2009h166l-428 -2009h-166z" />
<glyph unicode="}" horiz-adv-x="1017" d="M88 -180l33 153q129 8 237 101.5t136 222.5l84 393l331 135l-274 133l84 394q28 128 -41.5 222t-194.5 103l31 152q124 -5 215 -70t129 -173t12 -234l-63 -297l287 -140l-39 -180l-346 -139l-64 -299q-40 -191 -202 -329.5t-355 -147.5z" />
<glyph unicode="~" horiz-adv-x="1136" d="M272 487l35 160q70 -31 152 -31q83 0 247 43t238 43q86 0 154 -36l-35 -160q-73 31 -154 31q-84 0 -248 -43t-237 -43q-87 0 -152 36z" />
<glyph unicode="&#xa1;" horiz-adv-x="579" d="M193 -2l249 1171h162l-250 -1171h-161zM479 1454q9 43 46.5 74t80.5 31t67 -31t15 -74q-9 -44 -46.5 -75t-80.5 -31t-67 31t-15 75z" />
<glyph unicode="&#xa2;" horiz-adv-x="1165" d="M232 421q-3 77 12 159q45 213 217 378.5t399 206.5l21 2l32 158h164l-33 -158l17 -2q127 -25 213 -96l-123 -125q-23 20 -52.5 33.5t-88.5 32.5l-183 -858l29 6q78 19 141 57l70 -125q-122 -73 -254 -94l-18 -4l-35 -156h-164l35 156l-19 2q-87 17 -157.5 57t-116.5 96 t-74.5 126.5t-31.5 147.5zM401 580q-20 -96 5 -188.5t93 -158.5t165 -83l182 860q-85 -13 -163 -57.5t-134.5 -105t-95 -130t-52.5 -137.5z" />
<glyph unicode="&#xa3;" horiz-adv-x="1144" d="M233 451l33 151h99l129 608q34 154 168 261.5t290 107.5q95 0 169.5 -45t111.5 -123l-164 -68q-57 74 -141 74q-94 0 -174.5 -60.5t-100.5 -152.5l-127 -602h199l-33 -151h-198l-64 -297h391l41 192h154l-72 -346h-706l94 451h-99z" />
<glyph unicode="&#xa5;" horiz-adv-x="1067" d="M154 500l34 159h400l-37 162h-328l33 160h256l-131 582h172l160 -711l465 711h170l-381 -582h258l-33 -160h-328l-106 -162h399l-35 -159h-403l-105 -500h-161l104 500h-403z" />
<glyph unicode="&#xa8;" horiz-adv-x="972" d="M594 1808q9 41 46.5 72t78.5 31q43 0 67 -31t15 -72q-9 -43 -46.5 -73.5t-80.5 -30.5q-41 0 -65 30.5t-15 73.5zM948 1808q9 41 46.5 72t78.5 31q43 0 67 -31t15 -72q-9 -43 -46.5 -73.5t-80.5 -30.5q-41 0 -65 30.5t-15 73.5z" />
<glyph unicode="&#xa9;" d="M291 780q35 162 130 309.5t224.5 254.5t291 170t323.5 63q129 0 242 -40.5t194 -113t135 -172.5t66 -219t-13 -252q-45 -215 -190 -398.5t-351 -290.5t-421 -107q-216 0 -377.5 107t-230 290.5t-23.5 398.5zM430 780q-37 -178 18.5 -332t187.5 -244.5t310 -90.5 q179 0 350.5 90.5t292.5 244.5t158 332q38 180 -16.5 333.5t-187 244t-312.5 90.5q-133 0 -264.5 -51t-245.5 -146q-112 -93 -187 -215t-104 -256zM674 780q37 167 182 287.5t311 120.5q76 0 144 -28.5t110 -80.5v-2l-84 -86v2q-34 41 -84.5 63.5t-107.5 22.5 q-127 0 -231.5 -89t-131.5 -210q-25 -121 44.5 -209t191.5 -88q123 0 229 86l2 2l47 -86l-2 -2q-64 -53 -144 -80.5t-157 -27.5q-158 0 -252 108q-49 57 -66.5 135t-0.5 162z" />
<glyph unicode="&#xad;" horiz-adv-x="1048" d="M240 496l34 168h781l-35 -168h-780z" />
<glyph unicode="&#xae;" d="M291 780q35 162 130 309.5t224.5 254.5t291 170t323.5 63q129 0 242 -40.5t194 -113t135 -172.5t66 -219t-13 -252q-45 -215 -190 -398.5t-351 -290.5t-421 -107q-216 0 -377.5 107t-230 290.5t-23.5 398.5zM430 780q-38 -180 18 -334t188.5 -243.5t309.5 -89.5 q178 0 349.5 90t293 244t158.5 333q39 181 -17 335t-189 243.5t-310 89.5q-133 0 -264.5 -51t-245.5 -146q-112 -93 -187 -215t-104 -256zM780 387l168 791h203q123 0 191 -87t42 -210q-32 -148 -170 -238l-16 -10l105 -246h-125l-86 205l-11 -2q-30 -6 -57 -6h-98l-41 -197 h-105zM948 688h99q80 0 147.5 57.5t85.5 135.5q17 79 -27.5 135.5t-124.5 56.5h-98z" />
<glyph unicode="&#xb4;" horiz-adv-x="1009" d="M674 1704l379 391h164l-379 -391h-164z" />
<glyph unicode="&#xb7;" horiz-adv-x="489" d="M254 580q9 43 45.5 73.5t79.5 30.5q44 0 69.5 -30.5t16.5 -73.5t-47 -74t-82 -31q-43 0 -67 31t-15 74z" />
<glyph unicode="&#xb8;" horiz-adv-x="970" d="M102 -537l80 136h254q44 0 83 32t48 76t-15 77.5t-69 33.5h-170l105 180h168l-31 -49l23 -6q72 -23 106.5 -88.5t17.5 -147.5q-22 -101 -107.5 -172.5t-186.5 -71.5h-306z" />
<glyph unicode="&#xbf;" horiz-adv-x="1218" d="M201 381q0 53 10 92q19 89 69 173.5t123 150.5l287 254l25 123h164l-39 -187l-344 -305q-99 -90 -121 -209q-30 -138 47 -232t209 -94q133 0 248.5 95.5t144.5 230.5q19 89 -11.5 166.5t-99.5 118.5l140 123q90 -67 125.5 -175t9.5 -233q-43 -202 -217 -345.5 t-375 -143.5q-171 0 -286 112.5t-109 284.5zM756 1458q9 43 46 74t81 31q43 0 67 -31t15 -74q-9 -44 -46.5 -75t-80.5 -31q-44 0 -67.5 31t-14.5 75z" />
<glyph unicode="&#xc0;" horiz-adv-x="1533" d="M59 0l1047 1606l369 -1606h-166l-49 215h-895l-140 -215h-166zM479 391h740l-193 838zM836 2095h163l211 -391h-163z" />
<glyph unicode="&#xc1;" horiz-adv-x="1533" d="M59 0l1047 1606l369 -1606h-166l-49 215h-895l-140 -215h-166zM479 391h740l-193 838zM1051 1704l379 391h163l-379 -391h-163z" />
<glyph unicode="&#xc2;" horiz-adv-x="1533" d="M59 0l1047 1606l369 -1606h-166l-49 215h-895l-140 -215h-166zM479 391h740l-193 838zM834 1702l378 391l211 -391h-170l-90 166l-159 -166h-170z" />
<glyph unicode="&#xc3;" horiz-adv-x="1533" d="M59 0l1047 1606l369 -1606h-166l-49 215h-895l-140 -215h-166zM479 391h740l-193 838zM745 1741l35 160q70 -31 154 -31t246 43t237 43q84 0 154 -37l-35 -160q-73 31 -154 31q-84 0 -248 -43t-237 -43q-85 0 -152 37z" />
<glyph unicode="&#xc4;" horiz-adv-x="1533" d="M59 0l1047 1606l369 -1606h-166l-49 215h-895l-140 -215h-166zM479 391h740l-193 838zM868 1808q9 41 46.5 72t78.5 31q43 0 67 -31t15 -72q-9 -43 -46.5 -73.5t-80.5 -30.5q-41 0 -65 30.5t-15 73.5zM1223 1808q9 41 46.5 72t78.5 31q43 0 67 -31t15 -72 q-9 -43 -46.5 -73.5t-80.5 -30.5q-41 0 -65 30.5t-15 73.5z" />
<glyph unicode="&#xc5;" horiz-adv-x="1533" d="M59 0l1047 1606l369 -1606h-166l-49 215h-895l-140 -215h-166zM479 391h740l-193 838zM936 1950q22 101 109 173t188 72t158.5 -72t35.5 -173t-110 -173.5t-189 -72.5t-157.5 72.5t-34.5 173.5zM1071 1950q-9 -44 16.5 -76.5t71.5 -32.5q44 0 84 32.5t49 76.5 q9 45 -17 77.5t-71 32.5q-46 0 -85 -32t-48 -78z" />
<glyph unicode="&#xc6;" horiz-adv-x="2158" d="M59 0l1018 1561h1270l-33 -160h-807l-94 -440h606l-32 -160h-607l-137 -641h807l-33 -160h-968l45 213h-734l-137 -213h-164zM471 383h657l218 1018h-209z" />
<glyph unicode="&#xc7;" horiz-adv-x="1533" d="M294.5 455.5q-35.5 156.5 0.5 326.5q45 214 192.5 397.5t353.5 290.5t419 107q298 0 485 -199l-127 -131q-47 50 -100 86q-132 80 -293 80q-138 0 -269.5 -54t-231 -142.5t-170 -202t-95.5 -232.5q-36 -170 18 -316t181.5 -231t297.5 -85q119 0 240.5 43t222.5 124 l72 -131q-253 -200 -600 -200h-17l-51 -90l19 -7q70 -22 104 -85.5t17 -141.5q-20 -97 -103.5 -166t-181.5 -69h-295l78 131h246q43 0 80.5 30.5t46.5 73.5q9 42 -15.5 74.5t-68.5 32.5h-166l145 241l-22 6q-163 47 -270 165t-142.5 274.5z" />
<glyph unicode="&#xc8;" horiz-adv-x="1300" d="M154 0l331 1565h4h1002l-35 -162h-844l-94 -442h631l-33 -160h-631l-137 -641h844l-33 -160h-1005zM715 2095h164l211 -391h-164z" />
<glyph unicode="&#xc9;" horiz-adv-x="1300" d="M154 0h1005l33 160h-844l137 641h631l33 160h-631l94 442h844l35 162h-1002h-4zM901 1704l379 391h164l-379 -391h-164z" />
<glyph unicode="&#xca;" horiz-adv-x="1300" d="M154 0h1005l33 160h-844l137 641h631l33 160h-631l94 442h844l35 162h-1002h-4zM709 1702l378 391l211 -391h-170l-90 166l-159 -166h-170z" />
<glyph unicode="&#xcb;" horiz-adv-x="1300" d="M154 0h1005l33 160h-844l137 641h631l33 160h-631l94 442h844l35 162h-1002h-4zM748 1808q9 41 46 72t78 31q43 0 67 -31t15 -72q-9 -43 -46.5 -73.5t-80.5 -30.5q-41 0 -64.5 30.5t-14.5 73.5zM1102 1808q9 41 46.5 72t78.5 31q43 0 67 -31t15 -72q-9 -43 -46.5 -73.5 t-80.5 -30.5q-41 0 -65 30.5t-15 73.5z" />
<glyph unicode="&#xcc;" horiz-adv-x="921" d="M141 0l33 160h238l264 1243h-238l35 160h637l-35 -160h-237l-265 -1243h238l-33 -160h-637zM514 2095h164l211 -391h-164z" />
<glyph unicode="&#xcd;" horiz-adv-x="921" d="M141 0h637l33 160h-238l265 1243h237l35 160h-637l-35 -160h238l-264 -1243h-238zM756 1714l379 391h163l-378 -391h-164z" />
<glyph unicode="&#xce;" horiz-adv-x="921" d="M141 0h637l33 160h-238l265 1243h237l35 160h-637l-35 -160h238l-264 -1243h-238zM526 1702l379 391l211 -391h-170l-90 166l-160 -166h-170z" />
<glyph unicode="&#xcf;" horiz-adv-x="921" d="M141 0h637l33 160h-238l265 1243h237l35 160h-637l-35 -160h238l-264 -1243h-238zM563 1808q9 41 46.5 72t78.5 31q43 0 67 -31t15 -72q-9 -43 -46.5 -73.5t-80.5 -30.5q-41 0 -65 30.5t-15 73.5zM918 1808q9 41 46 72t78 31q43 0 67 -31t15 -72q-9 -43 -46.5 -73.5 t-80.5 -30.5q-41 0 -64.5 30.5t-14.5 73.5z" />
<glyph unicode="&#xd0;" horiz-adv-x="1470" d="M166 700l35 160h159l148 701h389q127 0 238.5 -40t191.5 -111t133.5 -169t65.5 -214.5t-13 -246.5q-33 -158 -125.5 -302.5t-219 -249t-284.5 -166.5t-317 -62h-389l148 700h-160zM373 162h227q126 0 251.5 49t226 131.5t174 197t100.5 240.5q36 168 -16.5 310.5 t-178 225.5t-293.5 83h-227l-115 -539h422l-35 -160h-422z" />
<glyph unicode="&#xd1;" horiz-adv-x="1480" d="M154 0h161l248 1169l770 -1214l342 1610h-162l-247 -1168l-770 1213zM702 1741l35 160q70 -31 154 -31q83 0 246 43t237 43q84 0 154 -37l-35 -160q-73 31 -154 31q-84 0 -248 -43t-237 -43q-85 0 -152 37z" />
<glyph unicode="&#xd2;" d="M291 780q35 162 129.5 309.5t224 254.5t290.5 170t322 63q129 0 242.5 -40.5t194.5 -113t136 -172.5t67 -219t-13 -252q-34 -161 -128.5 -308t-223.5 -253.5t-290 -169.5t-322 -63q-215 0 -376 106.5t-229.5 289.5t-23.5 398zM455 780q-36 -171 18 -316t182 -229.5 t299 -84.5t334.5 84.5t279.5 229.5t152 316q20 106 10.5 200.5t-52.5 173.5t-107.5 137t-154.5 90t-193 32q-171 0 -334.5 -84.5t-280 -230.5t-153.5 -318zM993 2095h164l211 -391h-164z" />
<glyph unicode="&#xd3;" d="M291 780q35 162 129.5 309.5t224 254.5t290.5 170t322 63q129 0 242.5 -40.5t194.5 -113t136 -172.5t67 -219t-13 -252q-34 -161 -128.5 -308t-223.5 -253.5t-290 -169.5t-322 -63q-215 0 -376 106.5t-229.5 289.5t-23.5 398zM455 780q-36 -171 18 -316t182 -229.5 t299 -84.5t334.5 84.5t279.5 229.5t152 316q20 106 10.5 200.5t-52.5 173.5t-107.5 137t-154.5 90t-193 32q-171 0 -334.5 -84.5t-280 -230.5t-153.5 -318zM1202 1704l379 391h164l-379 -391h-164z" />
<glyph unicode="&#xd4;" d="M291 780q35 162 129.5 309.5t224 254.5t290.5 170t322 63q129 0 242.5 -40.5t194.5 -113t136 -172.5t67 -219t-13 -252q-34 -161 -128.5 -308t-223.5 -253.5t-290 -169.5t-322 -63q-215 0 -376 106.5t-229.5 289.5t-23.5 398zM455 780q-36 -171 18 -316t182 -229.5 t299 -84.5t334.5 84.5t279.5 229.5t152 316q20 106 10.5 200.5t-52.5 173.5t-107.5 137t-154.5 90t-193 32q-171 0 -334.5 -84.5t-280 -230.5t-153.5 -318zM987 1702l379 391l211 -391h-170l-90 166l-160 -166h-170z" />
<glyph unicode="&#xd5;" d="M291 780q35 162 129.5 309.5t224 254.5t290.5 170t322 63q129 0 242.5 -40.5t194.5 -113t136 -172.5t67 -219t-13 -252q-34 -161 -128.5 -308t-223.5 -253.5t-290 -169.5t-322 -63q-215 0 -376 106.5t-229.5 289.5t-23.5 398zM455 780q-36 -171 18 -316t182 -229.5 t299 -84.5t334.5 84.5t279.5 229.5t152 316q20 106 10.5 200.5t-52.5 173.5t-107.5 137t-154.5 90t-193 32q-171 0 -334.5 -84.5t-280 -230.5t-153.5 -318zM901 1741l35 160q70 -31 154 -31t246 43t237 43q83 0 153 -37l-34 -160q-73 31 -154 31q-84 0 -248 -43t-237 -43 q-85 0 -152 37z" />
<glyph unicode="&#xd6;" d="M291 780q35 162 129.5 309.5t224 254.5t290.5 170t322 63q129 0 242.5 -40.5t194.5 -113t136 -172.5t67 -219t-13 -252q-34 -161 -128.5 -308t-223.5 -253.5t-290 -169.5t-322 -63q-215 0 -376 106.5t-229.5 289.5t-23.5 398zM455 780q-36 -171 18 -316t182 -229.5 t299 -84.5t334.5 84.5t279.5 229.5t152 316q20 106 10.5 200.5t-52.5 173.5t-107.5 137t-154.5 90t-193 32q-171 0 -334.5 -84.5t-280 -230.5t-153.5 -318zM1026 1808q9 41 46.5 72t78.5 31q43 0 67 -31t15 -72q-9 -43 -46.5 -73.5t-80.5 -30.5q-41 0 -65 30.5t-15 73.5z M1380 1808q9 41 46.5 72t78.5 31q43 0 67 -31t15 -72q-9 -43 -46.5 -73.5t-80.5 -30.5q-41 0 -65 30.5t-15 73.5z" />
<glyph unicode="&#xd7;" horiz-adv-x="1003" d="M246 360l266 220l-174 217l141 116l172 -217l264 217l93 -116l-265 -217l172 -220l-141 -114l-172 217l-264 -217z" />
<glyph unicode="&#xd8;" d="M236 0l190 197q-97 111 -133.5 262.5t-1.5 320.5q35 162 129.5 309.5t224 254.5t290.5 170t322 63q228 0 392 -117l100 103h195l-191 -197q97 -111 132 -260.5t-1 -325.5q-45 -216 -190.5 -399t-351.5 -290t-422 -107q-231 0 -392 118l-96 -102h-196zM455.5 531.5 q25.5 -115.5 97.5 -203.5l969 1001q-130 84 -299 84q-171 0 -334 -84.5t-279 -230.5t-153 -318q-27 -133 -1.5 -248.5zM657 233q125 -83 297 -83q171 0 334.5 84.5t279.5 229.5t152 316q28 135 3 251t-97 204z" />
<glyph unicode="&#xd9;" horiz-adv-x="1337" d="M262 473l232 1090h161l-231 -1090q-29 -133 53.5 -228t222.5 -95q142 0 265.5 95t152.5 228l232 1090h161l-231 -1090q-43 -201 -222.5 -344t-391.5 -143q-138 0 -241 65.5t-147 177.5t-16 244zM727 2095h164l211 -391h-164z" />
<glyph unicode="&#xda;" horiz-adv-x="1337" d="M262 473q-28 -132 16 -244t147 -177.5t241 -65.5q212 0 391.5 143t222.5 344l231 1090h-161l-232 -1090q-29 -133 -152.5 -228t-265.5 -95q-140 0 -222.5 95t-53.5 228l231 1090h-161zM938 1704l379 391h164l-379 -391h-164z" />
<glyph unicode="&#xdb;" horiz-adv-x="1337" d="M262 473q-28 -132 16 -244t147 -177.5t241 -65.5q212 0 391.5 143t222.5 344l231 1090h-161l-232 -1090q-29 -133 -152.5 -228t-265.5 -95q-140 0 -222.5 95t-53.5 228l231 1090h-161zM737 1702l379 391l211 -391h-170l-90 166l-160 -166h-170z" />
<glyph unicode="&#xdc;" horiz-adv-x="1337" d="M262 473q-28 -132 16 -244t147 -177.5t241 -65.5q212 0 391.5 143t222.5 344l231 1090h-161l-232 -1090q-29 -133 -152.5 -228t-265.5 -95q-140 0 -222.5 95t-53.5 228l231 1090h-161zM776 1808q9 41 46.5 72t78.5 31q43 0 67 -31t15 -72q-9 -43 -46.5 -73.5t-80.5 -30.5 q-41 0 -65 30.5t-15 73.5zM1130 1808q9 41 46.5 72t78.5 31q43 0 67 -31t15 -72q-9 -43 -46.5 -73.5t-80.5 -30.5q-41 0 -65 30.5t-15 73.5z" />
<glyph unicode="&#xdd;" horiz-adv-x="1396" d="M381 1563h172l260 -1014l696 1014h170l-815 -1194l-4 -4l-76 -365h-170l76 365zM958 1704l379 391h164l-379 -391h-164z" />
<glyph unicode="&#xde;" horiz-adv-x="1206" d="M156 0l331 1563h162l-86 -400h426q158 0 246.5 -111t54.5 -268q-33 -153 -168.5 -267t-294.5 -114h-426l-84 -403h-161zM436 563h426q51 0 113 27q59 29 100.5 81t54.5 113q19 91 -32 155.5t-142 64.5h-426z" />
<glyph unicode="&#xdf;" horiz-adv-x="1310" d="M61 -446l355 1669q38 176 173.5 281.5t317.5 105.5q160 0 249.5 -107.5t57.5 -259.5q-16 -71 -63.5 -138t-101.5 -112l-29 -22l29 -10q143 -53 210 -179.5t33 -281.5q-29 -140 -123 -259t-227.5 -188t-273.5 -69q-186 0 -301 118l-29 29l-123 -577h-154zM418 508 q-31 -150 52 -255.5t232 -105.5t276.5 103.5t158.5 249.5q31 145 -52 245.5t-235 100.5h-125l31 143h26q92 0 173.5 75.5t105.5 178.5q17 86 -38.5 146.5t-150.5 60.5q-109 0 -196.5 -70t-110.5 -176z" />
<glyph unicode="&#xe0;" horiz-adv-x="1445" d="M226.5 349.5q-25.5 108.5 2.5 232.5q34 162 143 300t263.5 218t316.5 80q219 0 365 -152l35 -37l30 142h158l-240 -1133h-157l37 174l-52 -39q-199 -149 -430 -149q-122 0 -222.5 46.5t-162 127.5t-87 189.5zM387 582q-38 -182 62.5 -310.5t281.5 -128.5 q177 0 330.5 120.5t200.5 295.5l8 47q29 175 -72 295.5t-278 120.5q-119 0 -233 -58.5t-194.5 -160t-105.5 -221.5zM676 1651h164l211 -391h-164z" />
<glyph unicode="&#xe1;" horiz-adv-x="1445" d="M226.5 349.5q-25.5 108.5 2.5 232.5q34 162 143 300t263.5 218t316.5 80q219 0 365 -152l35 -37l30 142h158l-240 -1133h-157l37 174l-52 -39q-199 -149 -430 -149q-122 0 -222.5 46.5t-162 127.5t-87 189.5zM387 582q-38 -182 62.5 -310.5t281.5 -128.5 q177 0 330.5 120.5t200.5 295.5l8 47q29 175 -72 295.5t-278 120.5q-119 0 -233 -58.5t-194.5 -160t-105.5 -221.5zM889 1260l379 391h164l-379 -391h-164z" />
<glyph unicode="&#xe2;" horiz-adv-x="1445" d="M226.5 349.5q-25.5 108.5 2.5 232.5q34 162 143 300t263.5 218t316.5 80q219 0 365 -152l35 -37l30 142h158l-240 -1133h-157l37 174l-52 -39q-199 -149 -430 -149q-122 0 -222.5 46.5t-162 127.5t-87 189.5zM387 582q-38 -182 62.5 -310.5t281.5 -128.5 q177 0 330.5 120.5t200.5 295.5l8 47q29 175 -72 295.5t-278 120.5q-119 0 -233 -58.5t-194.5 -160t-105.5 -221.5zM678 1262l379 391l211 -391h-170l-88 165l-162 -165h-170z" />
<glyph unicode="&#xe3;" horiz-adv-x="1445" d="M226.5 349.5q-25.5 108.5 2.5 232.5q34 162 143 300t263.5 218t316.5 80q219 0 365 -152l35 -37l30 142h158l-240 -1133h-157l37 174l-52 -39q-199 -149 -430 -149q-122 0 -222.5 46.5t-162 127.5t-87 189.5zM387 582q-38 -182 62.5 -310.5t281.5 -128.5 q177 0 330.5 120.5t200.5 295.5l8 47q29 175 -72 295.5t-278 120.5q-119 0 -233 -58.5t-194.5 -160t-105.5 -221.5zM588 1296l35 160q70 -31 151 -31q84 0 248 43t238 43q85 0 153 -36l-35 -160q-73 31 -153 31q-84 0 -248.5 -43t-237.5 -43q-89 0 -151 36z" />
<glyph unicode="&#xe4;" horiz-adv-x="1445" d="M226.5 349.5q-25.5 108.5 2.5 232.5q34 162 143 300t263.5 218t316.5 80q219 0 365 -152l35 -37l30 142h158l-240 -1133h-157l37 174l-52 -39q-199 -149 -430 -149q-122 0 -222.5 46.5t-162 127.5t-87 189.5zM387 582q-38 -182 62.5 -310.5t281.5 -128.5 q177 0 330.5 120.5t200.5 295.5l8 47q29 175 -72 295.5t-278 120.5q-119 0 -233 -58.5t-194.5 -160t-105.5 -221.5zM715 1364q9 41 46.5 71.5t78.5 30.5q43 0 67 -30.5t15 -71.5q-9 -43 -46.5 -73.5t-80.5 -30.5q-41 0 -65 30.5t-15 73.5zM1069 1364q9 41 46.5 71.5 t78.5 30.5q43 0 67 -30.5t15 -71.5q-9 -43 -46.5 -73.5t-80.5 -30.5q-41 0 -65 30.5t-15 73.5z" />
<glyph unicode="&#xe5;" horiz-adv-x="1445" d="M226.5 349.5q-25.5 108.5 2.5 232.5q34 162 143 300t263.5 218t316.5 80q219 0 365 -152l35 -37l30 142h158l-240 -1133h-157l37 174l-52 -39q-199 -149 -430 -149q-122 0 -222.5 46.5t-162 127.5t-87 189.5zM387 582q-38 -182 62.5 -310.5t281.5 -128.5 q177 0 330.5 120.5t200.5 295.5l8 47q29 175 -72 295.5t-278 120.5q-119 0 -233 -58.5t-194.5 -160t-105.5 -221.5zM774 1505q22 101 109 173.5t188 72.5t159 -72.5t36 -173.5t-110 -173t-189 -72t-158 72t-35 173zM909 1505q-9 -45 16 -76.5t70 -31.5t85.5 32t49.5 76 q9 46 -17.5 78.5t-70.5 32.5q-46 0 -85 -32.5t-48 -78.5z" />
<glyph unicode="&#xe6;" horiz-adv-x="2459" d="M229 582q34 162 143.5 300t264.5 218t317 80q217 0 363 -152l35 -37l30 142h158l-35 -160l43 35q233 172 457 172q160 0 280 -81.5t171 -219.5t18 -297q-10 -49 -39 -121h-1005l6 -43q25 -125 119.5 -200t228.5 -75q130 0 256 72l69 -125q-171 -104 -358 -104 q-236 0 -381 172l-31 35l-39 -193h-157l37 174l-52 -37q-210 -154 -428 -151q-162 0 -283 80t-171.5 217.5t-16.5 298.5zM389 582q-38 -182 62.5 -310.5t281.5 -128.5q115 0 225.5 55t191.5 150.5t112 210.5l8 47q28 174 -73 295t-275 121q-182 0 -338.5 -129.5 t-194.5 -310.5zM1446 608h876l2 29q11 166 -87 275.5t-265 109.5q-172 0 -317 -113t-201 -272z" />
<glyph unicode="&#xe7;" horiz-adv-x="1130" d="M217 -575l78 133h250q44 0 82 31t49 75q7 41 -13.5 72t-58.5 37h-14h-168l143 245l-18 7q-45 12 -86 36q-44 21 -90 64q-94 86 -129 210t-4 263q29 141 116.5 265t218.5 210q43 31 115 64q139 59 275 59q187 0 313 -102l-121 -127q-92 71 -227 71q-82 0 -156 -26 q-70 -25 -131 -66q-95 -63 -159.5 -154t-86.5 -194q-23 -102 3 -193t94 -155q52 -45 104 -64q65 -26 145 -26q134 0 258 71l66 -127q-161 -96 -330 -102l-12 -2l-61 -98l22 -6q72 -22 107 -87t18 -145q-22 -98 -107.5 -168.5t-185.5 -70.5h-299z" />
<glyph unicode="&#xe8;" horiz-adv-x="1413" d="M231 582q34 159 142 296.5t263 219.5t318 82q234 0 373 -158q73 -86 98.5 -201t-0.5 -239q-10 -49 -39 -121h-1007l8 -43q20 -126 116 -200.5t230 -74.5q132 0 258 72l70 -127q-173 -102 -361 -102q-162 0 -282.5 80t-170.5 217.5t-16 298.5zM395 608h879l2 29 q11 166 -88 275.5t-266 109.5q-171 0 -315 -111t-201 -274zM678 1649h164l211 -392h-164z" />
<glyph unicode="&#xe9;" horiz-adv-x="1413" d="M231 582q34 159 142 296.5t263 219.5t318 82q234 0 373 -158q73 -86 98.5 -201t-0.5 -239q-10 -49 -39 -121h-1007l8 -43q20 -126 116 -200.5t230 -74.5q132 0 258 72l70 -127q-173 -102 -361 -102q-162 0 -282.5 80t-170.5 217.5t-16 298.5zM395 608h879l2 29 q11 166 -88 275.5t-266 109.5q-171 0 -315 -111t-201 -274zM891 1260l379 391h164l-379 -391h-164z" />
<glyph unicode="&#xea;" horiz-adv-x="1413" d="M231 582q34 159 142 296.5t263 219.5t318 82q234 0 373 -158q73 -86 98.5 -201t-0.5 -239q-10 -49 -39 -121h-1007l8 -43q20 -126 116 -200.5t230 -74.5q132 0 258 72l70 -127q-173 -102 -361 -102q-162 0 -282.5 80t-170.5 217.5t-16 298.5zM395 608h879l2 29 q11 166 -88 275.5t-266 109.5q-171 0 -315 -111t-201 -274zM678 1262l379 391l211 -391h-170l-88 165l-162 -165h-170z" />
<glyph unicode="&#xeb;" horiz-adv-x="1413" d="M231 582q34 159 142 296.5t263 219.5t318 82q234 0 373 -158q73 -86 98.5 -201t-0.5 -239q-10 -49 -39 -121h-1007l8 -43q20 -126 116 -200.5t230 -74.5q132 0 258 72l70 -127q-173 -102 -361 -102q-162 0 -282.5 80t-170.5 217.5t-16 298.5zM395 608h879l2 29 q11 166 -88 275.5t-266 109.5q-171 0 -315 -111t-201 -274zM717 1366q9 41 46.5 71.5t78.5 30.5q43 0 67 -30.5t15 -71.5q-9 -43 -46.5 -73.5t-80.5 -30.5q-41 0 -65 30.5t-15 73.5zM1071 1366q9 41 46.5 71.5t78.5 30.5q43 0 67 -30.5t15 -71.5q-9 -43 -46.5 -73.5 t-80.5 -30.5q-41 0 -65 30.5t-15 73.5z" />
<glyph unicode="&#xec;" horiz-adv-x="473" d="M162 0l246 1159h161l-245 -1159h-162zM215 1651h164l211 -391h-164z" />
<glyph unicode="&#xed;" horiz-adv-x="475" d="M164 0l246 1159h161l-245 -1159h-162zM430 1257l379 392h164l-379 -392h-164z" />
<glyph unicode="&#xee;" horiz-adv-x="493" d="M162 0l246 1159h161l-245 -1159h-162zM215 1262l379 391l211 -391h-170l-88 165l-162 -165h-170z" />
<glyph unicode="&#xef;" horiz-adv-x="475" d="M164 0l246 1159h161l-245 -1159h-162zM254 1364q9 41 46.5 71.5t78.5 30.5q43 0 67 -30.5t15 -71.5q-9 -43 -46.5 -73.5t-80.5 -30.5q-41 0 -65 30.5t-15 73.5zM608 1364q9 41 46.5 71.5t78.5 30.5q43 0 67 -30.5t15 -71.5q-9 -43 -46.5 -73.5t-80.5 -30.5 q-41 0 -65 30.5t-15 73.5z" />
<glyph unicode="&#xf1;" horiz-adv-x="1271" d="M143 0l240 1133h158l-17 -82l45 30q138 96 318 99q133 0 232 -66t141 -179.5t14 -246.5l-146 -688h-157l145 688q29 138 -47.5 237t-214.5 99q-139 0 -259 -99t-149 -237l-145 -688h-158zM522 1296l35 160q70 -31 152 -31q83 0 247 43t238 43q86 0 154 -36l-35 -160 q-73 31 -154 31q-84 0 -248 -43t-237 -43q-90 0 -152 36z" />
<glyph unicode="&#xf2;" horiz-adv-x="1411" d="M229 349q-26 109 2 233q34 162 143.5 300t264.5 218t317 80q161 0 281.5 -80t171 -218t16.5 -300t-143.5 -300t-264 -218t-315.5 -80q-122 0 -223 47t-162.5 128t-87.5 190zM389 582q-25 -119 12 -220t125.5 -160t208.5 -59q182 0 338.5 129t194.5 310 q38 183 -62.5 311.5t-281.5 128.5q-120 0 -234.5 -58.5t-195 -160t-105.5 -221.5zM678 1649h164l211 -392h-164z" />
<glyph unicode="&#xf3;" horiz-adv-x="1411" d="M229 349q-26 109 2 233q34 162 143.5 300t264.5 218t317 80q161 0 281.5 -80t171 -218t16.5 -300t-143.5 -300t-264 -218t-315.5 -80q-122 0 -223 47t-162.5 128t-87.5 190zM389 582q-25 -119 12 -220t125.5 -160t208.5 -59q182 0 338.5 129t194.5 310 q38 183 -62.5 311.5t-281.5 128.5q-120 0 -234.5 -58.5t-195 -160t-105.5 -221.5zM893 1260l379 391h164l-379 -391h-164z" />
<glyph unicode="&#xf4;" horiz-adv-x="1411" d="M229 349q-26 109 2 233q34 162 143.5 300t264.5 218t317 80q161 0 281.5 -80t171 -218t16.5 -300t-143.5 -300t-264 -218t-315.5 -80q-122 0 -223 47t-162.5 128t-87.5 190zM389 582q-25 -119 12 -220t125.5 -160t208.5 -59q182 0 338.5 129t194.5 310 q38 183 -62.5 311.5t-281.5 128.5q-120 0 -234.5 -58.5t-195 -160t-105.5 -221.5zM676 1262l379 391l211 -391h-170l-88 165l-162 -165h-170z" />
<glyph unicode="&#xf5;" horiz-adv-x="1411" d="M229 349q-26 109 2 233q34 162 143.5 300t264.5 218t317 80q161 0 281.5 -80t171 -218t16.5 -300t-143.5 -300t-264 -218t-315.5 -80q-122 0 -223 47t-162.5 128t-87.5 190zM389 582q-25 -119 12 -220t125.5 -160t208.5 -59q182 0 338.5 129t194.5 310 q38 183 -62.5 311.5t-281.5 128.5q-120 0 -234.5 -58.5t-195 -160t-105.5 -221.5zM586 1296l35 160q70 -31 151 -31q83 0 246.5 43t238.5 43q86 0 154 -36l-35 -160q-73 31 -153 31q-84 0 -248.5 -43t-237.5 -43q-89 0 -151 36z" />
<glyph unicode="&#xf6;" horiz-adv-x="1411" d="M229 349q-26 109 2 233q34 162 143.5 300t264.5 218t317 80q161 0 281.5 -80t171 -218t16.5 -300t-143.5 -300t-264 -218t-315.5 -80q-122 0 -223 47t-162.5 128t-87.5 190zM389 582q-25 -119 12 -220t125.5 -160t208.5 -59q182 0 338.5 129t194.5 310 q38 183 -62.5 311.5t-281.5 128.5q-120 0 -234.5 -58.5t-195 -160t-105.5 -221.5zM719 1364q9 41 46.5 71.5t78.5 30.5q43 0 67 -30.5t15 -71.5q-9 -43 -46.5 -73.5t-80.5 -30.5q-41 0 -65 30.5t-15 73.5zM1073 1364q9 41 46.5 71.5t78.5 30.5q43 0 67 -30.5t15 -71.5 q-9 -43 -46.5 -73.5t-80.5 -30.5q-41 0 -65 30.5t-15 73.5z" />
<glyph unicode="&#xf7;" horiz-adv-x="987" d="M213 496l35 168h780l-35 -168h-780zM416 106q9 43 46 74t81 31q43 0 68 -31t16 -74t-46.5 -73.5t-80.5 -30.5q-44 0 -68.5 30.5t-15.5 73.5zM618 1061q9 43 46 73.5t81 30.5q43 0 68 -30.5t16 -73.5t-46.5 -74t-80.5 -31q-44 0 -68.5 31t-15.5 74z" />
<glyph unicode="&#xf8;" horiz-adv-x="1413" d="M178 0l146 152l-9 12q-66 84 -87.5 192.5t3.5 225.5q34 162 143.5 300t264.5 218t317 80q153 0 271 -74l14 -8l64 65h176l-146 -149l11 -15q132 -173 81 -417q-34 -162 -143.5 -300t-264.5 -218t-317 -80q-149 0 -270 73l-14 9l-64 -66h-176zM391 582q-33 -151 55 -303 l672 692l-22 10q-91 41 -162 41q-123 0 -238 -57.5t-197 -158.5t-108 -224zM541 193l20 -11q77 -39 174 -39q120 0 234.5 59t195 160t105.5 220q33 151 -45 284l-11 21z" />
<glyph unicode="&#xf9;" horiz-adv-x="1286" d="M250 475l145 688h156l-145 -688q-29 -138 48.5 -236t215.5 -98t257 98t148 236l146 688h155l-246 -1163h-155l22 113l-47 -29q-148 -100 -313 -100q-134 0 -233 66t-140.5 179t-13.5 246zM616 1647h164l213 -392h-164z" />
<glyph unicode="&#xfa;" horiz-adv-x="1286" d="M250 475l145 688h156l-145 -688q-29 -138 48.5 -236t215.5 -98t257 98t148 236l146 688h155l-246 -1163h-155l22 113l-47 -29q-148 -100 -313 -100q-134 0 -233 66t-140.5 179t-13.5 246zM829 1257l379 392h164l-379 -392h-164z" />
<glyph unicode="&#xfb;" horiz-adv-x="1286" d="M250 475l145 688h156l-145 -688q-29 -138 48.5 -236t215.5 -98t257 98t148 236l146 688h155l-246 -1163h-155l22 113l-47 -29q-148 -100 -313 -100q-134 0 -233 66t-140.5 179t-13.5 246zM612 1262l379 391l211 -391h-170l-88 165l-162 -165h-170z" />
<glyph unicode="&#xfc;" horiz-adv-x="1286" d="M250 475l145 688h156l-145 -688q-29 -138 48.5 -236t215.5 -98t257 98t148 236l146 688h155l-246 -1163h-155l22 113l-47 -29q-148 -100 -313 -100q-134 0 -233 66t-140.5 179t-13.5 246zM655 1362q9 41 45.5 71.5t77.5 30.5q43 0 68 -30.5t16 -71.5q-9 -43 -46.5 -74 t-80.5 -31q-41 0 -65 31t-15 74zM1010 1362q9 41 45.5 71.5t77.5 30.5q43 0 68 -30.5t16 -71.5q-9 -43 -46.5 -74t-80.5 -31q-41 0 -65 31t-15 74z" />
<glyph unicode="&#xfd;" horiz-adv-x="1280" d="M221 -442h178l1076 1605h-177l-596 -889l-221 889h-176l266 -1081zM821 1257l379 392h164l-379 -392h-164z" />
<glyph unicode="&#xfe;" horiz-adv-x="1435" d="M59 -446l426 2007h160l-121 -570l49 37q98 73 210 112.5t221 39.5q122 0 223 -47t163.5 -128t88.5 -190t-2 -233q-34 -162 -144 -300t-265.5 -218t-317.5 -80q-109 0 -204 39t-161 112l-35 37l-131 -618h-160zM434 559q-29 -175 72 -296.5t276 -121.5q120 0 234.5 59.5 t195 161t105.5 220.5t-12 220.5t-125.5 160.5t-208.5 59q-175 0 -329 -121.5t-200 -296.5z" />
<glyph unicode="&#xff;" horiz-adv-x="1280" d="M221 -442h178l1076 1605h-177l-596 -889l-221 889h-176l266 -1081zM657 1364q9 41 46.5 71.5t78.5 30.5q43 0 67 -30.5t15 -71.5q-9 -43 -46.5 -73.5t-80.5 -30.5q-41 0 -65 30.5t-15 73.5zM1012 1364q9 41 46.5 71.5t78.5 30.5q43 0 67 -30.5t15 -71.5 q-9 -43 -46.5 -73.5t-80.5 -30.5q-41 0 -65 30.5t-15 73.5z" />
<glyph unicode="&#x152;" horiz-adv-x="2684" d="M291 780q35 162 129.5 309.5t224 254.5t290.5 170t322 63q171 0 312 -70t227 -198l29 -41l63 295h987l-34 -164h-824l-92 -434h619l-35 -162h-619l-135 -639h823l-34 -164h-988l62 295l-45 -41q-140 -128 -311 -198t-342 -70q-215 0 -376 106.5t-229.5 289.5t-23.5 398z M455 780q-36 -171 18 -316t182 -229.5t299 -84.5t334.5 84.5t279.5 229.5t152 316q20 106 10.5 200.5t-52.5 173.5t-107.5 137t-154.5 90t-193 32q-171 0 -334.5 -84.5t-280 -230.5t-153.5 -318z" />
<glyph unicode="&#x153;" horiz-adv-x="2459" d="M231 584q34 162 143 299.5t263.5 217t316.5 79.5q156 0 275 -75t174 -208l10 -29l25 29q103 128 257 205.5t310 77.5q112 0 207.5 -40.5t163.5 -117.5q74 -87 99.5 -199t-1.5 -239q-11 -59 -37 -121h-1005l4 -43q25 -125 120 -200t230 -75q128 0 254 72l69 -125 q-171 -104 -358 -104q-156 0 -274 75t-172 207l-13 29l-22 -29q-113 -132 -264 -207t-306 -75q-162 0 -282.5 80t-170.5 217.5t-16 298.5zM389 584q-38 -182 63.5 -310.5t282.5 -128.5q119 0 232.5 59t193.5 160t105 220q38 182 -62.5 310t-281.5 128q-182 0 -338.5 -128.5 t-194.5 -309.5zM1446 610h876l2 29q15 164 -86 273.5t-266 109.5q-78 0 -157 -27q-72 -22 -132 -65q-165 -109 -229 -291z" />
<glyph unicode="&#x178;" horiz-adv-x="1396" d="M381 1563h172l260 -1014l696 1014h170l-815 -1194l-4 -4l-76 -365h-170l76 365zM801 1808q9 41 46.5 72t78.5 31q43 0 67 -31t15 -72q-9 -43 -46.5 -73.5t-80.5 -30.5q-41 0 -65 30.5t-15 73.5zM1155 1808q9 41 46.5 72t78.5 31q43 0 67 -31t15 -72q-9 -43 -46.5 -73.5 t-80.5 -30.5q-41 0 -65 30.5t-15 73.5z" />
<glyph unicode="&#x2c6;" horiz-adv-x="886" d="M506 1704l379 391l211 -391h-170l-88 166l-162 -166h-170z" />
<glyph unicode="&#x2dc;" horiz-adv-x="1040" d="M500 1741l35 160q70 -31 153 -31q84 0 246 43t237 43q84 0 154 -37l-35 -160q-73 31 -153 31q-84 0 -248.5 -43t-237.5 -43q-84 0 -151 37z" />
<glyph unicode="&#x2000;" horiz-adv-x="1097" />
<glyph unicode="&#x2001;" horiz-adv-x="2195" />
<glyph unicode="&#x2002;" horiz-adv-x="1097" />
<glyph unicode="&#x2003;" horiz-adv-x="2195" />
<glyph unicode="&#x2004;" horiz-adv-x="731" />
<glyph unicode="&#x2005;" horiz-adv-x="548" />
<glyph unicode="&#x2006;" horiz-adv-x="365" />
<glyph unicode="&#x2007;" horiz-adv-x="365" />
<glyph unicode="&#x2008;" horiz-adv-x="274" />
<glyph unicode="&#x2009;" horiz-adv-x="439" />
<glyph unicode="&#x200a;" horiz-adv-x="121" />
<glyph unicode="&#x2010;" horiz-adv-x="1048" d="M240 496l34 168h781l-35 -168h-780z" />
<glyph unicode="&#x2011;" horiz-adv-x="1048" d="M240 496l34 168h781l-35 -168h-780z" />
<glyph unicode="&#x2012;" horiz-adv-x="1048" d="M240 496l34 168h781l-35 -168h-780z" />
<glyph unicode="&#x2013;" horiz-adv-x="1595" d="M238 502l34 166h1338l-35 -166h-1337z" />
<glyph unicode="&#x2014;" horiz-adv-x="2039" d="M238 502l34 166h1784l-35 -166h-1783z" />
<glyph unicode="&#x2018;" horiz-adv-x="428" d="M401 1354q9 35 33 63l125 146h51l-88 -105l25 -6q33 -7 49 -34.5t8 -63.5q-9 -43 -45.5 -73t-77.5 -30q-43 0 -66 30t-14 73z" />
<glyph unicode="&#x2019;" horiz-adv-x="409" d="M414 1251l88 105l-25 6q-33 7 -49 34.5t-8 63.5q9 43 45.5 73t77.5 30q43 0 66 -30t14 -73q-9 -35 -33 -63l-125 -146h-51z" />
<glyph unicode="&#x201a;" horiz-adv-x="516" d="M176 -102l88 104l-26 6q-33 7 -48.5 34.5t-7.5 63.5q9 43 44.5 73t76.5 30q43 0 67 -30t15 -73q-9 -35 -33 -63l-125 -145h-51z" />
<glyph unicode="&#x201c;" horiz-adv-x="749" d="M410 1354q10 41 32 63l125 146h51l-88 -105l25 -6q34 -7 50.5 -35t8.5 -63q-9 -42 -46 -72.5t-79 -30.5q-43 0 -65.5 30t-13.5 73zM717 1354q9 36 31 61l126 148h52l-88 -105l24 -6q33 -7 49.5 -34.5t8.5 -63.5q-9 -43 -45.5 -73t-79.5 -30q-41 0 -64 30t-14 73z" />
<glyph unicode="&#x201d;" horiz-adv-x="745" d="M426 1251l88 105l-25 6q-33 7 -49 34.5t-8 63.5q9 43 45.5 73t79.5 30q41 0 64 -30t14 -73q-9 -36 -31 -61l-127 -148h-51zM733 1251l88 105l-24 6q-34 7 -51 35t-9 63q9 42 46 72.5t79 30.5q43 0 66 -30t14 -73q-10 -40 -33 -63l-125 -146h-51z" />
<glyph unicode="&#x201e;" horiz-adv-x="784" d="M147 -102l89 104l-27 6q-33 7 -48 34.5t-7 63.5q9 43 44.5 73t77.5 30q41 0 65 -30t15 -73q-10 -39 -32 -61l-125 -147h-52zM455 -102l88 104l-27 6q-33 7 -49 34.5t-8 63.5q9 43 45.5 73t77.5 30q43 0 67 -30t15 -73q-10 -40 -33 -63l-125 -145h-51z" />
<glyph unicode="&#x2022;" horiz-adv-x="608" d="M293 580q10 55 58 95t104 40t86.5 -39.5t19.5 -95.5q-12 -56 -59.5 -95t-104.5 -39q-55 0 -85.5 39t-18.5 95z" />
<glyph unicode="&#x2026;" horiz-adv-x="1112" d="M152 104q9 43 46.5 74t80.5 31t66.5 -31t14.5 -74t-45 -73.5t-79 -30.5t-68 30.5t-16 73.5zM465 104q9 43 46.5 74t80.5 31q44 0 68.5 -31t15.5 -74t-46 -73.5t-81 -30.5q-43 0 -68 30.5t-16 73.5zM780 104q9 43 46.5 74t80.5 31t67 -31t15 -74t-45.5 -73.5t-79.5 -30.5 t-68 30.5t-16 73.5z" />
<glyph unicode="&#x202f;" horiz-adv-x="439" />
<glyph unicode="&#x205f;" horiz-adv-x="548" />
<glyph unicode="&#x20ac;" horiz-adv-x="1474" d="M221 502l33 162h195q3 56 18 118q12 59 33 119h-195l35 162h238q134 229 368 372.5t486 143.5q145 0 260 -47l-97 -152q-90 35 -198 35q-183 0 -356 -96.5t-285 -255.5h381l-35 -162h-434q-26 -64 -37 -119q-15 -61 -15 -118h435l-33 -162h-381q45 -159 176.5 -255.5 t314.5 -96.5q110 0 213 34l33 -151q-136 -47 -280 -47q-252 0 -425.5 143.5t-209.5 372.5h-238z" />
<glyph unicode="&#x2122;" horiz-adv-x="1908" d="M305 811l17 82h550l-16 -82h-233l-172 -811h-84l172 811h-234zM920 0l198 938l305 -565l549 565l-198 -938h-93l144 680l-430 -442l-240 442l-143 -680h-92z" />
<glyph unicode="&#x25fc;" horiz-adv-x="1167" d="M0 0v1167h1167v-1167h-1167z" />
</font>
</defs>
</svg>
