<?xml version="1.0" standalone="no"?>
<!DOCTYPE svg PUBLIC "-//W3C//DTD SVG 1.1//EN" "http://www.w3.org/Graphics/SVG/1.1/DTD/svg11.dtd" >
<svg xmlns="http://www.w3.org/2000/svg" xmlns:xlink="http://www.w3.org/1999/xlink" version="1.1">
<metadata></metadata>
<defs>
<font id="voyagerbold_italic" horiz-adv-x="1847" >
<font-face units-per-em="2048" ascent="1604" descent="-444" />
<missing-glyph horiz-adv-x="567" />
<glyph unicode="&#xfb01;" horiz-adv-x="1294" d="M186 420l54 254h94l131 616q29 133 144 227.5t249 94.5q91 0 158 -47.5t90 -130.5l10 -33l-256 -115l-10 31q-9 35 -47 35q-26 0 -49 -18t-29 -44l-131 -616h428l108 510h263l-250 -1184h-262l88 420h-428l-88 -420h-260l88 420h-95zM1165 1456q13 64 68.5 110t120.5 46 q64 0 100.5 -45.5t22.5 -110.5q-14 -63 -69.5 -108t-119.5 -45t-100.5 45t-22.5 108z" />
<glyph unicode="&#xfb02;" horiz-adv-x="1269" d="M184 420l54 254h94l131 616q29 133 144 227.5t249 94.5q93 0 159.5 -47.5t88.5 -130.5l12 -33l-256 -115l-12 31q-6 35 -47 35q-25 0 -47.5 -18t-28.5 -44l-131 -616h407l201 936h266l-342 -1610h-266l88 420h-407l-88 -420h-263l89 420h-95z" />
<glyph unicode="&#xfb03;" horiz-adv-x="1966" d="M186 420l54 254h94l131 616q29 133 144 227.5t249 94.5q91 0 158 -47.5t90 -130.5l10 -33l-256 -115l-10 31q-9 35 -47 35q-26 0 -49 -18t-29 -44l-131 -616h412l131 616q29 133 144 227.5t249 94.5q91 0 158 -47.5t90 -130.5l10 -33l-256 -115l-10 31q-9 35 -47 35 q-26 0 -49 -18t-29 -44l-131 -616h428l108 510h262l-249 -1184h-263l88 420h-428l-88 -420h-260l88 420h-411l-88 -420h-260l88 420h-95zM1837 1456q14 65 69 110.5t119 45.5t100.5 -45.5t22.5 -110.5q-14 -63 -69 -108t-119 -45t-100.5 45t-22.5 108z" />
<glyph unicode="&#xfb04;" horiz-adv-x="1943" d="M186 420l54 254h94l131 616q29 133 144 227.5t249 94.5q93 0 159.5 -47.5t88.5 -130.5l12 -33l-256 -115l-12 31q-6 35 -47 35q-25 0 -47.5 -18t-28.5 -44l-131 -616h410l131 616q29 133 144 227.5t249 94.5q93 0 159.5 -47.5t88.5 -130.5l12 -33l-256 -115l-12 31 q-6 35 -47 35q-25 0 -47.5 -18t-28.5 -44l-131 -616h407l201 936h266l-342 -1610h-266l88 420h-408l-88 -420h-262l88 420h-409l-88 -420h-262l88 420h-95z" />
<glyph horiz-adv-x="0" />
<glyph horiz-adv-x="682" />
<glyph unicode=" "  horiz-adv-x="567" />
<glyph unicode="&#x09;" horiz-adv-x="567" />
<glyph unicode="&#xa0;" horiz-adv-x="567" />
<glyph unicode="!" horiz-adv-x="618" d="M188 152q13 64 68 108.5t119 44.5q65 0 99.5 -44.5t21.5 -108.5q-12 -63 -66 -107.5t-119 -44.5q-63 0 -99 44.5t-24 107.5zM262 389l250 1174h262l-250 -1174h-262z" />
<glyph unicode="&#x22;" horiz-adv-x="1046" d="M389 1171l283 392h246l-283 -392h-246zM725 1171l283 392h245l-282 -392h-246z" />
<glyph unicode="#" horiz-adv-x="1552" d="M88 0l301 463h-127l55 262h244l72 111h-156l55 262h271l303 463h268l-301 -463h180l303 463h269l-303 -463h141l-55 -262h-256l-72 -111h168l-55 -262h-285l-301 -463h-270l303 463h-181l-303 -463h-268zM829 725h181l71 111h-180z" />
<glyph unicode="$" horiz-adv-x="1124" d="M137 285l269 110l8 -30q17 -53 60.5 -84t100.5 -31q96 0 177 62.5t102 160.5q11 59 -14 117.5t-76 85.5l-215 108q-99 51 -146.5 150t-21.5 219q28 130 126 241t230 154l37 172h281l-35 -168q135 -50 199 -217l-265 -110l-14 24q-14 26 -42 43t-60 17q-67 0 -122 -45 t-69 -111q-8 -39 8.5 -76t51.5 -55l223 -117q98 -51 149.5 -139t50.5 -203q0 -37 -10 -82q-33 -158 -150 -290t-280 -183l-37 -172h-280l35 162q-96 27 -165 91t-96 159z" />
<glyph unicode="%" horiz-adv-x="1697" d="M369 0l1022 1563h268l-1020 -1563h-270zM403 1317q22 101 109 173.5t188 72.5q102 0 158.5 -72t34.5 -174t-108.5 -174t-188.5 -72q-101 0 -158 72.5t-35 173.5zM612 1317q-3 -15 5 -26t22 -11q15 0 28.5 11t16.5 26t-5.5 25t-23.5 10q-14 0 -27 -10t-16 -25zM1133 246 q22 101 110 173.5t189 72.5t157.5 -72.5t34.5 -173.5t-109 -173.5t-188 -72.5t-158.5 72.5t-35.5 173.5zM1343 246q-3 -15 4.5 -26t22.5 -11t28.5 11t16.5 26t-5.5 26t-23.5 11t-27.5 -11t-15.5 -26z" />
<glyph unicode="&#x26;" horiz-adv-x="1265" d="M211 506q34 159 154 288.5t280 182.5l-135 586h846l-58 -263h-460l299 -1298h-529q-136 0 -237.5 67.5t-145 183.5t-14.5 253zM473 506q-22 -100 34.5 -171t156.5 -71h143l-109 473q-80 -22 -144 -87t-81 -144z" />
<glyph unicode="'" horiz-adv-x="700" d="M389 1171l283 392h246l-283 -392h-246z" />
<glyph unicode="(" horiz-adv-x="817" d="M186 328l211 995q29 137 121.5 253.5t224 184.5t269.5 68h37l-54 -258h-37q-103 0 -192 -72.5t-111 -175.5l-211 -995q-23 -102 35.5 -176t161.5 -74h37l-55 -258h-37q-138 0 -241 68t-146 185t-13 255z" />
<glyph unicode=")" horiz-adv-x="823" d="M98 -180l56 258h39q102 0 191 73.5t112 176.5l211 995q22 103 -36 175.5t-161 72.5h-39l53 258h39q137 0 239.5 -68t146 -184.5t14.5 -253.5l-211 -995q-46 -211 -226 -359.5t-389 -148.5h-39z" />
<glyph unicode="*" horiz-adv-x="1040" d="M354 1049l54 243h170l-56 148l236 121l55 -146l115 146l186 -121l-115 -148h170l-53 -243h-170l53 -146l-237 -123l-51 148l-119 -148l-184 123l116 146h-170z" />
<glyph unicode="+" horiz-adv-x="1150" d="M281 457l53 250h266l55 266h248l-55 -266h266l-53 -250h-266l-58 -267h-248l58 267h-266z" />
<glyph unicode="," horiz-adv-x="634" d="M125 -123l111 131q-64 51 -46 137q14 66 71 114t124 48q66 0 103.5 -48t23.5 -114q-11 -51 -47 -90l-150 -178h-190z" />
<glyph unicode="-" horiz-adv-x="1048" d="M231 459l52 239h780l-51 -239h-781z" />
<glyph unicode="." horiz-adv-x="616" d="M188 154q14 63 68.5 108t118.5 45q63 0 98.5 -45t22.5 -108q-12 -63 -67 -108.5t-118 -45.5q-64 0 -99.5 45t-23.5 109z" />
<glyph unicode="/" horiz-adv-x="1103" d="M61 0l1022 1563h269l-1020 -1563h-271z" />
<glyph unicode="0" horiz-adv-x="1300" d="M242 496l120 571q29 138 122.5 255.5t226.5 186t272 68.5q187 0 303 -119q72 -73 97.5 -175t0.5 -216l-120 -571q-29 -139 -122.5 -257t-226 -186.5t-270.5 -68.5q-139 0 -243 70.5t-146.5 188.5t-13.5 253zM520 616l559 650l-6 4q-56 53 -143 53q-107 0 -199 -75 t-115 -181zM547 297l6 -6q56 -53 145 -53q105 0 197 76t115 182l94 448z" />
<glyph unicode="1" horiz-adv-x="727" d="M279 0l278 1315h-203l146 248h372l-331 -1563h-262z" />
<glyph unicode="2" horiz-adv-x="1263" d="M-6 0l1026 907q74 74 92 164q23 108 -37.5 181t-161.5 73q-105 0 -195 -74.5t-112 -179.5q-17 -75 10.5 -139.5t90.5 -93.5l36 -17l-219 -194l-18 12q-101 69 -141 183.5t-11 248.5q29 137 121.5 253t223.5 183.5t268 67.5q97 0 181 -38t138.5 -105t78 -159.5 t-0.5 -201.5q-42 -192 -201 -336l-549 -485h580l-51 -250h-1149z" />
<glyph unicode="3" horiz-adv-x="1239" d="M213 489l6 31h252l-6 -31q-23 -107 37.5 -180t163.5 -73q104 0 193.5 74.5t111.5 178.5q23 104 -34 179t-163 75h-139l334 570h-486l52 248h835l-356 -607l6 -2q125 -62 180 -187.5t23 -275.5q-29 -137 -121 -253.5t-222.5 -184t-267.5 -67.5q-146 0 -248 73.5 t-140 188.5t-11 243z" />
<glyph unicode="4" horiz-adv-x="1247" d="M72 197l792 1366h260l-651 -1121h342l43 199h240l-43 -199h174l-51 -245h-174l-41 -197h-240l41 197h-692z" />
<glyph unicode="5" horiz-adv-x="1245" d="M203 289.5q-22 94.5 0 199.5l6 31h252l-6 -31q-22 -105 36.5 -179t163.5 -74q104 0 194 74.5t112 178.5q23 104 -35 179t-162 75h-424l483 820h529l-54 -250h-368l-187 -318h74q137 0 238.5 -68t143.5 -184.5t13 -253.5t-120.5 -253.5t-222 -184t-267.5 -67.5 q-99 0 -183 39t-139 105.5t-77 161z" />
<glyph unicode="6" horiz-adv-x="1296" d="M241 288.5q-23 92.5 1 200.5q19 93 67 173l533 901h254l-340 -578l14 4q44 6 86 6q137 0 238.5 -68t143.5 -184.5t13 -253.5t-120.5 -253.5t-222 -184t-267.5 -67.5q-99 0 -184 38.5t-139 106t-77 160zM494 489q-22 -105 36.5 -179t163.5 -74q104 0 194.5 74.5 t112.5 178.5q23 105 -35 179.5t-163 74.5q-106 0 -196 -74t-113 -180z" />
<glyph unicode="7" horiz-adv-x="1009" d="M61 0l775 1315h-387l53 248h749l-921 -1563h-269z" />
<glyph unicode="8" horiz-adv-x="1234" d="M207 494q25 117 96.5 220t177.5 177l6 4l-4 8q-68 111 -37 262q37 170 183.5 291t318.5 121q170 0 265.5 -121t58.5 -291q-31 -151 -148 -262l-8 -8l6 -4q75 -74 103.5 -177.5t3.5 -219.5q-29 -138 -122.5 -255.5t-226 -186t-270.5 -68.5q-139 0 -242 68.5t-146.5 186 t-14.5 255.5zM461 494q-23 -106 36.5 -181t166.5 -75q106 0 197 75t114 181q22 106 -37 182t-164 76q-107 0 -199 -76t-114 -182zM698 1165q-13 -67 24 -114t105 -47q66 0 122 47t69 114q15 66 -21 113t-102 47q-67 0 -124.5 -47t-72.5 -113z" />
<glyph unicode="9" horiz-adv-x="1286" d="M365 1073q29 137 120.5 253t222 183.5t267.5 67.5q98 0 182.5 -38t139 -105.5t78 -160t-0.5 -200.5q-20 -99 -65 -174l-533 -899h-254l338 575l-14 -2q-41 -6 -86 -6q-137 0 -238.5 67.5t-143.5 184t-13 254.5zM616 1073q-23 -106 35 -181t162 -75q106 0 197 75t114 181 q22 105 -37.5 179.5t-164.5 74.5q-104 0 -194 -75t-112 -179z" />
<glyph unicode=":" horiz-adv-x="616" d="M188 154q14 63 68.5 108t118.5 45q63 0 98.5 -45t22.5 -108q-12 -63 -67 -108.5t-118 -45.5q-64 0 -99.5 45t-23.5 109zM371 1010q13 64 67 108.5t119 44.5q63 0 98.5 -44.5t22.5 -108.5q-12 -63 -66.5 -107.5t-117.5 -44.5q-64 0 -99.5 44.5t-23.5 107.5z" />
<glyph unicode=";" horiz-adv-x="634" d="M127 -123l111 131q-63 50 -45 137q14 66 70.5 114t123.5 48q66 0 103.5 -48t23.5 -114q-10 -50 -47 -90l-150 -178h-190zM379 1010q13 64 67 108.5t119 44.5q63 0 98.5 -44.5t22.5 -108.5q-12 -63 -66.5 -107.5t-117.5 -44.5q-64 0 -99.5 44.5t-23.5 107.5z" />
<glyph unicode="&#x3c;" horiz-adv-x="1595" d="M295 580l1311 505l-54 -251l-657 -254l549 -254l-53 -252z" />
<glyph unicode="=" horiz-adv-x="1183" d="M262 291l51 239h781l-52 -239h-780zM334 631l51 239h780l-51 -239h-780z" />
<glyph unicode="&#x3e;" horiz-adv-x="1595" d="M233 74l54 252l659 254l-551 254l54 251l1097 -505z" />
<glyph unicode="?" horiz-adv-x="1273" d="M358 1067q46 212 227 361t392 149q99 0 184 -39.5t139.5 -108.5t78 -162t-0.5 -200q-20 -94 -72.5 -183.5t-127.5 -156.5l-248 -219l-25 -119h-266l47 223l338 299q71 64 90 156q23 102 -36 174t-156 72q-100 0 -187.5 -72.5t-109.5 -173.5q-15 -73 11.5 -132.5 t88.5 -90.5l45 -23l-235 -207l-23 17q-100 71 -141 187t-13 249zM567 154q14 63 68.5 108t118.5 45q63 0 98.5 -45t21.5 -108q-12 -64 -66.5 -109t-117.5 -45q-64 0 -99.5 44.5t-23.5 109.5z" />
<glyph unicode="@" horiz-adv-x="1902" d="M285 479q-11 109 12 232q37 173 142.5 333.5t248.5 277t318 186t346 69.5q159 0 287 -60.5t206 -173.5q145 -208 82 -495q-16 -75 -46.5 -152.5t-77 -153t-102.5 -134.5t-127.5 -95.5t-146.5 -36.5q-80 0 -134 42t-74 110q-111 -57 -226 -57q-160 0 -246.5 109.5 t-52.5 269.5q25 116 109 218t200 162t232 60q95 0 166 -41l4 14h233l-178 -600q-5 -23 4 -37t31 -14q31 0 65 38.5t60 93.5t44.5 104.5t25.5 80.5q30 142 -13.5 260.5t-147.5 186t-245 67.5q-160 0 -319.5 -83t-276 -225t-151.5 -304q-29 -142 13.5 -260t146 -186t245.5 -68 q153 0 301 74l82 -193q-224 -116 -448 -116q-121 0 -226 37t-180 103t-125 157t-61 200zM936 762q-15 -66 21 -111t102 -45q72 0 139 51t92 125q14 73 -17.5 122.5t-103.5 49.5q-78 0 -148 -57.5t-85 -134.5z" />
<glyph unicode="A" horiz-adv-x="1533" d="M59 0l1049 1606l369 -1606h-265l-45 190h-718l-123 -190h-267zM623 455h485l-127 549z" />
<glyph unicode="B" horiz-adv-x="1484" d="M178 0l330 1561l510 2q111 0 194 -55q82 -56 116 -150q20 -56 21 -117q0 -43 -10 -88q-18 -94 -82 -180q134 -57 196 -185q41 -85 41 -182q0 -50 -11 -104q-29 -136 -121 -251.5t-222 -183t-266 -67.5h-696zM496 262h434q98 0 183.5 71t107.5 169q5 26 5 51q0 67 -40 119 q-56 70 -154 71h-434zM653 1006h246q62 0 114 43t64 104q4 17 4 33q-1 40 -25 71q-34 43 -95 43h-246z" />
<glyph unicode="C" horiz-adv-x="1572" d="M279 583q-2 24 -2 49q0 74 18 150q45 213 191 396t352 291t419 108q312 0 496 -211l23 -25l-211 -215l-23 31q-59 74 -147 114t-193 40q-142 0 -272 -68q-144 -72 -241.5 -195.5t-127.5 -265.5q-12 -55 -12 -108q0 -80 27 -152q44 -122 150.5 -195t250.5 -73 q105 0 210 40t195 114l37 30l119 -215l-33 -24q-281 -213 -585 -213q-114 0 -214.5 31t-174.5 86t-131 130t-85 163.5t-36 186.5z" />
<glyph unicode="D" horiz-adv-x="1497" d="M178 0l332 1563h418q127 0 237.5 -40t190 -111t132.5 -169.5t65 -214.5q4 -38 4 -78q0 -82 -17 -170q-44 -211 -186.5 -391t-344.5 -284.5t-413 -104.5h-418zM496 262h155q140 0 274.5 69.5t229 189t123.5 259.5q13 56 13 109q0 47 -11 93q-23 94 -76.5 165t-141 112 t-192.5 41h-155z" />
<glyph unicode="E" horiz-adv-x="1306" d="M154 0l331 1565h1014l-55 -262h-752l-63 -297h565l-55 -261h-566l-104 -485h752l-54 -260h-1013z" />
<glyph unicode="F" horiz-adv-x="1316" d="M182 0l332 1563h1014l-58 -263h-749l-62 -296h564l-56 -261h-563l-158 -743h-264z" />
<glyph unicode="G" horiz-adv-x="1669" d="M295 782q45 214 192.5 398t354.5 291.5t420 107.5q308 0 497 -213l21 -23l-211 -217l-23 33q-52 71 -145.5 111.5t-194.5 42.5q-114 0 -225 -45.5t-195 -120t-143 -170.5t-80 -195q-13 -57 -13 -110q0 -50 12 -96q23 -97 78.5 -169t145 -113.5t195.5 -41.5 q95 0 194.5 34.5t180.5 96.5l37 172h-383l57 266h649l-117 -545q-162 -144 -327 -218t-348 -74q-98 0 -186 23t-157.5 64t-127 98.5t-94 127t-59.5 149.5q-23 77 -23 160q0 85 18 176z" />
<glyph unicode="H" horiz-adv-x="1458" d="M178 0l332 1565h262l-119 -561h580l119 561h262l-332 -1565h-262l158 743h-580l-158 -743h-262z" />
<glyph unicode="I" horiz-adv-x="921" d="M141 0l54 260h186l221 1040h-186l57 263h639l-57 -263h-191l-221 -1040h191l-54 -260h-639z" />
<glyph unicode="J" horiz-adv-x="1042" d="M145 393l11 43h262l-10 -43q-3 -16 -3 -30q0 -42 26 -74q35 -43 93 -43q62 0 115.5 43.5t65.5 103.5l192 907h-377l58 263h636l-249 -1170q-35 -169 -180.5 -289t-315.5 -120q-164 0 -262 120q-72 87 -72 201q0 42 10 88z" />
<glyph unicode="K" horiz-adv-x="1323" d="M178 0l332 1563h262l-154 -717l637 717h299l-575 -652l264 -911h-301l-192 653l-226 -256l-84 -397h-262z" />
<glyph unicode="L" horiz-adv-x="1058" d="M141 0l332 1565h262l-278 -1305h563l-53 -260h-826z" />
<glyph unicode="M" horiz-adv-x="1843" d="M176 0l340 1608l557 -912l946 912l-340 -1608h-266l193 909l-615 -592l-358 592l-193 -909h-264z" />
<glyph unicode="N" horiz-adv-x="1480" d="M154 0l342 1610l712 -1000l203 955h262l-342 -1610l-713 999l-202 -954h-262z" />
<glyph unicode="O" d="M279 529q-4 40 -4 82q0 81 16 169q35 162 129.5 309.5t224 254.5t290.5 170t322 63q130 0 243.5 -40.5t194.5 -113t135.5 -172.5t66.5 -219q4 -39 4 -79q0 -83 -17 -173q-45 -216 -190.5 -399t-351.5 -290t-422 -107q-129 0 -242.5 40.5t-195 113.5t-136 173t-67.5 218z M559 780q-12 -57 -11 -110q0 -80 26 -154q46 -122 153 -193t250 -71q144 0 281 71t233.5 192.5t126.5 264.5q12 61 12 116q0 26 -3 52q-8 79 -44 145.5t-90 115t-129.5 75.5t-161.5 27q-143 0 -280 -71t-234.5 -193.5t-128.5 -266.5z" />
<glyph unicode="P" horiz-adv-x="1277" d="M178 0l332 1563h416q161 0 281 -80q120 -79 170 -217q30 -82 30 -173q0 -61 -14 -126q-32 -151 -131.5 -283t-245.5 -215q-97 -57 -205 -82q-75 -16 -139 -16h-154l-78 -371h-262zM573 633h154q10 0 16 2q97 3 181 55q79 45 133 119t73 158q8 38 8 72q0 91 -56 163 q-77 98 -214 98h-153z" />
<glyph unicode="Q" horiz-adv-x="1804" d="M279 529q-4 40 -4 82q0 81 16 169q35 161 129.5 308.5t224 254.5t290.5 170.5t322 63.5q129 0 242.5 -41t194.5 -113.5t136 -172.5t67 -218q4 -39 4 -79q0 -83 -17 -173q-32 -152 -116.5 -291t-211.5 -249l117 -254h-325l-41 90q-198 -92 -387 -92q-129 0 -242.5 40.5 t-195 113.5t-136 173t-67.5 218zM559 780q-12 -57 -12 -110q0 -81 27 -154q46 -122 153 -193t250 -71q112 0 227 47l-151 330h325l72 -158q131 137 166 309q13 59 13 114q0 80 -27 152q-45 122 -152 192.5t-250 70.5t-279.5 -70.5t-233.5 -192.5t-128 -266z" />
<glyph unicode="R" horiz-adv-x="1284" d="M143 0l332 1563h414q162 0 283 -80q120 -79 170 -217q30 -82 30 -173q0 -61 -14 -126q-31 -142 -121 -268t-221 -210l207 -489h-314l-161 383q-58 -12 -113 -12h-152l-77 -371h-263zM539 633h151q139 0 258.5 100.5t147.5 233.5q8 37 8 72q0 93 -57 163q-78 98 -216 98 h-151z" />
<glyph unicode="S" horiz-adv-x="1116" d="M129 287l268 110l11 -30q15 -51 59.5 -83t101.5 -32q95 0 175.5 62.5t101.5 160.5q4 22 4 42q0 40 -16 77q-25 56 -78 84l-215 108q-106 54 -148 159q-26 65 -26 137q0 45 10 92q23 109 100.5 202.5t185.5 147t218 53.5t197.5 -54t119.5 -149l12 -37l-264 -110l-14 24 q-14 27 -41 43.5t-60 16.5q-65 0 -120 -41.5t-68 -104.5q-3 -19 -4 -36q-1 -28 9 -51q14 -37 50 -54l226 -115q72 -38 122 -107t70 -147q8 -40 7 -81q0 -46 -9 -91q-28 -133 -115.5 -247t-215 -182t-263.5 -68q-138 0 -239.5 71.5t-139.5 194.5z" />
<glyph unicode="T" horiz-adv-x="1251" d="M416 1300l57 263h1012l-58 -263h-374l-277 -1302h-262l277 1302h-375z" />
<glyph unicode="U" horiz-adv-x="1337" d="M266 492l228 1071h262l-228 -1071q-6 -27 -6 -53q0 -65 42 -117q58 -72 157 -72q101 0 189 71t110 171l227 1071h262l-227 -1071q-29 -137 -122 -254t-224.5 -185.5t-269.5 -68.5q-137 0 -239.5 68.5t-146.5 185.5q-26 70 -26 148q0 51 12 106z" />
<glyph unicode="V" horiz-adv-x="1536" d="M391 1563h266l228 -1006l657 1006h266l-1050 -1608z" />
<glyph unicode="W" horiz-adv-x="2158" d="M369 1563h280l250 -1006l225 334l-168 672h281l252 -1006l682 1006h278l-1087 -1608l-162 635l-428 -635z" />
<glyph unicode="X" horiz-adv-x="1492" d="M90 0l694 821l-309 742h293l205 -488l416 488h292l-624 -742l346 -821h-297l-240 569l-483 -569h-293z" />
<glyph unicode="Y" horiz-adv-x="1396" d="M381 1563h272l195 -858l559 858h272l-772 -1180l-80 -383h-258l80 383z" />
<glyph unicode="Z" horiz-adv-x="1198" d="M88 0l875 1300h-469l57 263h860l-879 -1303h603l-54 -260h-993z" />
<glyph unicode="[" horiz-adv-x="800" d="M182 -16l426 2009h537l-58 -269h-268l-311 -1472h268l-57 -268h-537z" />
<glyph unicode="\" horiz-adv-x="1103" d="M393 1563h271l356 -1563h-268z" />
<glyph unicode="]" horiz-adv-x="892" d="M174 -16l57 268h269l311 1472h-268l57 269h537l-426 -2009h-537z" />
<glyph unicode="^" horiz-adv-x="899" d="M455 1464l379 391l210 -391h-233l-43 82l-82 -82h-231z" />
<glyph unicode="_" horiz-adv-x="1863" d="M39 0l49 240h1786l-49 -240h-1786z" />
<glyph unicode="`" horiz-adv-x="944" d="M651 2095h246l211 -391h-246z" />
<glyph unicode="a" horiz-adv-x="1445" d="M229 582q34 162 143.5 300t264 218t315.5 80q186 0 318 -107l12 57h258l-242 -1132h-258l21 92q-176 -106 -363 -106q-161 0 -281.5 80t-170.5 218q-30 82 -31 174q0 61 14 126zM492 590q-9 -40 -9 -76q0 -92 56 -162q78 -98 217 -98q135 0 250.5 91.5t152.5 225.5l8 37 q4 28 4 53q0 99 -61 173q-77 92 -211 92q-138 0 -258 -99t-149 -237z" />
<glyph unicode="b" horiz-adv-x="1470" d="M154 -2l342 1610h256l-113 -535q181 107 362 107q162 0 283 -80t172 -218q31 -83 31 -174q0 -61 -14 -126q-34 -162 -143.5 -300t-264.5 -218t-317 -80q-188 0 -318 106l-20 -92h-256zM530 563q-5 -29 -5 -56q0 -99 63 -172q80 -93 215 -93q141 0 262 99.5t152 240.5 q8 38 8 72q-1 94 -59 168q-80 100 -220 100q-135 0 -253.5 -93.5t-153.5 -228.5z" />
<glyph unicode="c" horiz-adv-x="1177" d="M220 435q-1 17 -1 34q0 56 14 113q33 159 143.5 296.5t265.5 218.5t314 81q200 0 330 -115l25 -23l-197 -204l-27 20q-86 66 -178 66q-149 0 -269.5 -100.5t-150.5 -239.5q-8 -38 -9 -74q0 -92 57 -165q78 -101 221 -101q116 0 213 63l37 23l108 -205l-35 -23 q-182 -116 -379 -116q-88 0 -164.5 24t-132 65.5t-97.5 98.5t-62 123.5t-26 139.5z" />
<glyph unicode="d" horiz-adv-x="1458" d="M228 349q-12 52 -12 107q0 61 15 126q34 162 143 300t263.5 218t316.5 80q186 0 318 -107l112 535h258l-342 -1610h-258l21 92q-171 -106 -363 -106q-122 0 -222.5 47t-162 128t-87.5 190zM487 582q-9 -39 -9 -75q0 -93 58 -165q80 -100 220 -100q138 0 258 93.5 t149 227.5l8 37q5 29 5 57q0 99 -62 171q-79 94 -215 94q-140 0 -261.5 -99.5t-150.5 -240.5z" />
<glyph unicode="e" horiz-adv-x="1413" d="M228 349q-12 52 -12 107q0 61 15 126q33 159 143 297t265 219.5t315 81.5q151 0 268.5 -73t174.5 -199q42 -94 42 -201q0 -37 -5 -76q-3 -20 -13 -64q-9 -47 -43 -125l-12 -28h-870q28 -79 98 -125.5t162 -46.5q112 0 213 63l110 -205q-182 -116 -379 -116 q-122 0 -222.5 47t-162 128t-87.5 190zM514 664h662q-3 113 -80.5 185.5t-196.5 72.5q-122 0 -227.5 -74.5t-157.5 -183.5z" />
<glyph unicode="f" horiz-adv-x="804" d="M186 418l54 254h94l131 612q28 133 141.5 227.5t247.5 94.5q91 0 158 -47t92 -129l8 -33l-256 -117l-10 33q-10 33 -47 33q-27 0 -49.5 -18t-26.5 -44l-131 -612h186l-53 -254h-186l-88 -418h-258l88 418h-95z" />
<glyph unicode="g" horiz-adv-x="1462" d="M229 349q-13 52 -13 108q0 61 15 125q34 162 143.5 300t264.5 218t317 80q185 0 320 -107l12 57h256l-211 -993q-35 -159 -143.5 -296.5t-264 -219.5t-317.5 -82q-197 0 -329 117l198 205q75 -66 185 -66q77 0 161 36.5t150.5 105t83.5 147.5q-171 -100 -355 -100 q-122 0 -223 47t-162.5 128t-87.5 190zM489 582q-9 -40 -9 -76q0 -93 57 -166q79 -100 219 -100q85 0 168.5 39.5t146.5 109.5q68 78 96 174l9 37q4 27 4 53q0 101 -64 175q-79 94 -215 94q-140 0 -261.5 -100.5t-150.5 -239.5z" />
<glyph unicode="h" horiz-adv-x="1292" d="M156 0l340 1606h262l-103 -488q124 62 252 62q136 0 237.5 -67t144.5 -183q26 -69 25 -145q0 -52 -11 -107l-144 -678h-260l143 678q6 28 6 54q0 66 -40 117q-56 71 -156 71q-99 0 -184 -71t-107 -171l-143 -678h-262z" />
<glyph unicode="i" horiz-adv-x="575" d="M164 0l246 1159h262l-246 -1159h-262zM449 1450q14 63 68 108.5t118 45.5q63 0 99 -46q26 -33 25 -75q0 -16 -3 -33q-14 -63 -69 -108.5t-118 -45.5q-64 0 -99 46q-25 32 -25 73q0 17 4 35z" />
<glyph unicode="j" horiz-adv-x="600" d="M-233 -250l253 115l13 -33q10 -33 49 -33q25 0 47.5 18.5t26.5 43.5l276 1302h260l-276 -1302q-28 -133 -142.5 -227.5t-246.5 -94.5q-92 0 -161 47.5t-91 128.5zM465 1450q14 65 69 110.5t119 45.5t101 -46q26 -32 26 -75q0 -17 -4 -35q-14 -65 -69 -110.5t-119 -45.5 t-100 46q-27 32 -27 75q0 17 4 35z" />
<glyph unicode="k" horiz-adv-x="1224" d="M156 0l340 1606h262l-178 -840l409 414h328l-551 -555l420 -625h-334l-285 424l-78 -78l-71 -346h-262z" />
<glyph unicode="l" horiz-adv-x="555" d="M143 0l340 1606h269l-340 -1606h-269z" />
<glyph unicode="m" horiz-adv-x="1851" d="M158 0l239 1130h221l-4 -16q122 66 260 66q189 0 304 -125q158 123 338 123q123 0 214 -60q92 -62 130 -166q23 -62 23 -131q0 -47 -11 -96l-154 -725h-254l154 725q5 22 5 43q0 56 -34 98q-46 58 -129 58q-82 0 -153 -58.5t-88 -140.5l-154 -725h-254l154 725q5 22 5 43 q0 54 -34 96q-46 58 -127 60q-87 -5 -157 -60.5t-87 -138.5l-153 -725h-254z" />
<glyph unicode="n" horiz-adv-x="1286" d="M143 0l240 1133h254l-4 -19q132 66 262 66q136 0 237 -68q100 -66 142 -182q25 -69 26 -145q0 -52 -12 -107l-143 -678h-254l143 678q6 29 6 55q0 69 -40 121q-56 72 -158 72q-103 0 -191 -72.5t-110 -175.5l-144 -678h-254z" />
<glyph unicode="o" horiz-adv-x="1411" d="M229 349q-13 52 -13 108q0 60 15 125q34 162 143.5 300t264.5 218t317 80q122 0 223 -47t162.5 -128t87.5 -190q13 -52 13 -108q0 -60 -15 -125q-34 -162 -143.5 -300t-264.5 -218t-317 -80q-122 0 -223 47t-162.5 128t-87.5 190zM487 582q-9 -39 -9 -75q0 -93 58 -165 q80 -100 222 -100q140 0 260 99.5t151 240.5q8 38 8 73q1 95 -57 167q-78 100 -219 100t-263 -99.5t-151 -240.5z" />
<glyph unicode="p" horiz-adv-x="1431" d="M59 -446l336 1579h258l-12 -60q173 107 363 107q122 0 223 -47t162.5 -128t87.5 -190q13 -52 13 -108q0 -61 -15 -125q-34 -162 -143.5 -300t-264.5 -218t-317 -80q-191 0 -318 106l-115 -536h-258zM532 563q-5 -30 -5 -58q0 -98 61 -170q80 -93 217 -93 q140 0 260.5 99.5t151.5 240.5q8 38 8 73q0 95 -58 167q-79 100 -219 100q-90 0 -177 -42.5t-149.5 -117t-80.5 -162.5z" />
<glyph unicode="q" horiz-adv-x="1460" d="M229 349q-13 52 -13 108q0 61 15 125q34 162 143.5 300t264.5 218t317 80q187 0 318 -107l12 60h258l-336 -1579h-258l115 536q-174 -106 -363 -106q-122 0 -223 47t-162.5 128t-87.5 190zM487 582q-9 -39 -9 -75q0 -94 58 -165q81 -100 222 -100q135 0 252.5 93 t154.5 228l9 37q4 27 4 53q0 101 -63 175q-79 94 -214 94q-141 0 -263 -99.5t-151 -240.5z" />
<glyph unicode="r" horiz-adv-x="714" d="M143 0l240 1133h254l-4 -19q129 66 258 66l-53 -254q-101 -2 -188 -74.5t-109 -173.5l-144 -678h-254z" />
<glyph unicode="s" horiz-adv-x="911" d="M119 209l254 113l12 -27q21 -53 94 -53q54 0 101 37.5t57 91.5q2 13 2 25q0 55 -53 93l-185 95q-65 42 -95 118q-18 46 -18 96q0 32 7 64q28 131 140.5 224.5t242.5 93.5q90 0 155.5 -47.5t90.5 -126.5l10 -35l-252 -113l-12 33q-10 31 -47 31q-25 0 -45 -17.5t-25 -42.5 q-3 -18 3 -33.5t19 -19.5l168 -88q83 -45 123 -121q36 -69 36 -148q0 -39 -9 -81q-34 -160 -171 -273.5t-298 -113.5q-101 0 -180 51t-111 139z" />
<glyph unicode="t" horiz-adv-x="778" d="M190 0l189 895h-96l57 268h96l94 443h271l-94 -443h192l-57 -268h-193l-188 -895h-271z" />
<glyph unicode="u" horiz-adv-x="1302" d="M252 483l143 676h254l-143 -676q-6 -29 -6 -55q0 -66 40 -118q56 -72 158 -72q101 0 189 72t110 173l144 676h252l-246 -1159h-252l10 49q-130 -65 -260 -65q-136 0 -236.5 67t-142.5 182q-25 68 -26 144q0 51 12 106z" />
<glyph unicode="v" horiz-adv-x="1120" d="M307 1163h252l127 -604l381 604h252l-762 -1204z" />
<glyph unicode="w" horiz-adv-x="1835" d="M307 1159h275l149 -604l443 655l159 -655l408 604h276l-811 -1204l-159 655l-443 -655z" />
<glyph unicode="x" horiz-adv-x="1161" d="M66 0l501 610l-219 551h285l127 -319l262 319h285l-453 -551l244 -610h-285l-151 379l-312 -379h-284z" />
<glyph unicode="y" horiz-adv-x="1282" d="M184 -449l344 545l-221 1067h275l153 -741l467 741h277l-1020 -1612h-275z" />
<glyph unicode="z" horiz-adv-x="946" d="M61 0l615 913h-303l53 250h684l-618 -913h421l-51 -250h-801z" />
<glyph unicode="{" horiz-adv-x="1089" d="M266 702l53 244l324 131l53 246q29 137 121.5 253.5t223.5 184.5t268 68h39l-54 -258h-39q-103 0 -191 -72.5t-110 -175.5l-88 -410l-221 -88l184 -90l-86 -407q-23 -103 34.5 -176.5t160.5 -73.5h39l-55 -258h-39q-137 0 -239.5 68t-145.5 185t-13 255l52 243z" />
<glyph unicode="|" horiz-adv-x="800" d="M254 -59l428 2009h268l-428 -2009h-268z" />
<glyph unicode="}" horiz-adv-x="1067" d="M88 -180l55 258h37q103 0 191 72.5t110 175.5l88 409l222 90l-185 88l88 410q22 103 -35.5 175.5t-160.5 72.5h-37l53 258h37q138 0 241 -68t146 -184.5t14 -253.5l-53 -246l270 -131l-53 -244l-323 -131l-54 -245q-29 -137 -121.5 -253.5t-223.5 -184.5t-269 -68h-37z " />
<glyph unicode="~" horiz-adv-x="1136" d="M276 502l54 258l47 -27q56 -33 131 -33q64 0 206.5 37t215.5 37q95 0 164 -41l16 -10l-55 -256l-45 25q-61 34 -133 34q-64 0 -206 -37.5t-216 -37.5q-89 0 -160 41z" />
<glyph unicode="&#xa1;" horiz-adv-x="595" d="M156 -4l250 1173h262l-250 -1173h-262zM434 1407q12 63 66 107.5t118 44.5q63 0 99 -44.5t24 -107.5q-13 -64 -68 -109t-118 -45q-64 0 -99.5 44.5t-21.5 109.5z" />
<glyph unicode="&#xa2;" horiz-adv-x="1200" d="M244 580q44 206 209.5 373t386.5 216l32 156h269l-33 -156q132 -36 201 -102l26 -25l-200 -206l-25 22q-11 9 -31.5 21.5t-27.5 17.5l-136 -635q51 22 76 37l35 23l111 -207l-35 -23q-123 -79 -246 -102l-33 -154h-268l33 154q-135 26 -224 118t-118.5 216t-1.5 256z M504 580q-23 -103 15.5 -189t125.5 -131l137 637q-110 -46 -183 -129.5t-95 -187.5z" />
<glyph unicode="&#xa3;" horiz-adv-x="1175" d="M231 416l54 256h90l108 510q23 106 99.5 197.5t182 144.5t212.5 53q108 0 190.5 -53t120.5 -146l15 -37l-263 -108l-12 24q-30 58 -100 58q-63 0 -117.5 -40.5t-67.5 -100.5l-106 -502h184l-53 -256h-184l-35 -162h252l39 180h254l-93 -434h-765l88 416h-93z" />
<glyph unicode="&#xa5;" horiz-adv-x="1159" d="M176 463l55 262h340l-6 37h-325l55 262h209l-123 539h281l131 -576l376 576h281l-352 -539h209l-56 -262h-323l-25 -37h340l-55 -262h-375l-98 -463h-262l98 463h-375z" />
<glyph unicode="&#xa8;" horiz-adv-x="972" d="M485 1866q13 67 71 114.5t126 47.5q66 0 103 -47.5t24 -114.5q-13 -66 -72 -114t-125 -48q-67 0 -104 47.5t-23 114.5zM956 1866q13 67 71.5 114.5t125.5 47.5t105 -47t24 -115q-13 -66 -72 -114t-127 -48q-66 0 -103.5 48t-23.5 114z" />
<glyph unicode="&#xa9;" d="M291 780q35 162 130 309.5t224.5 254.5t291 170t323.5 63q129 0 242 -40.5t194 -113t135 -172.5t66 -219t-13 -252q-45 -215 -190 -398.5t-351 -290.5t-421 -107q-216 0 -377.5 107t-230 290.5t-23.5 398.5zM504.5 597q8.5 -86 47.5 -159t97.5 -126t140.5 -83t175 -30 q240 0 444 170q99 84 164 189t90 222q33 156 -15 290.5t-164 214t-272 79.5q-155 0 -303.5 -78.5t-254.5 -213t-140 -292.5q-18 -97 -9.5 -183zM692 780q23 106 96 195t171 138.5t196 49.5q153 0 242 -102l22 -27l-137 -143l-29 37q-59 59 -135 59q-55 0 -106 -26 q-53 -24 -93.5 -75t-52.5 -106q-17 -83 32 -145t132 -62q85 0 160 62l45 37l76 -144l-35 -28q-147 -103 -283 -103q-108 0 -185 55t-107 142.5t-9 185.5z" />
<glyph unicode="&#xad;" horiz-adv-x="1048" d="M231 459l52 239h780l-51 -239h-781z" />
<glyph unicode="&#xae;" d="M291 780q35 162 130 309.5t224.5 254.5t291 170t323.5 63q129 0 242 -40.5t194 -113t135 -172.5t66 -219t-13 -252q-45 -215 -190 -398.5t-351 -290.5t-421 -107q-216 0 -377.5 107t-230 290.5t-23.5 398.5zM504.5 597q8.5 -86 48 -159t98 -126t140 -83t174.5 -30 q156 0 306 79t254.5 213t137.5 289q33 156 -15 290.5t-164 214t-272 79.5q-155 0 -303.5 -78.5t-254.5 -213t-140 -292.5q-18 -97 -9.5 -183zM774 399l162 766h217q125 0 194.5 -87.5t41.5 -211.5q-28 -136 -146 -221l103 -246h-211l-70 170q-6 0 -19.5 -1t-19.5 -1h-39 l-35 -168h-178zM1026 745h39q52 0 95 37t52 84q11 51 -17 87t-79 36h-39z" />
<glyph unicode="&#xb4;" horiz-adv-x="1009" d="M635 1704l379 391h246l-379 -391h-246z" />
<glyph unicode="&#xb7;" horiz-adv-x="585" d="M254 580q12 63 66.5 108t119.5 45q63 0 98 -45t23 -108q-14 -63 -68.5 -108.5t-117.5 -45.5q-64 0 -99.5 45.5t-21.5 108.5z" />
<glyph unicode="&#xb8;" horiz-adv-x="970" d="M80 -535l125 213h239q15 0 28.5 11t16.5 26q3 14 -5 25.5t-23 11.5h-211l147 248h244l-37 -59q60 -31 86.5 -92.5t11.5 -133.5q-22 -103 -111 -176.5t-192 -73.5h-319z" />
<glyph unicode="&#xbf;" horiz-adv-x="1255" d="M208.5 296q-23.5 93 0.5 200q20 94 73 183t128 157l247 219l25 119h266l-47 -224l-338 -299q-71 -65 -90 -155q-23 -102 36 -174t157 -72q100 0 187.5 72.5t109.5 173.5q15 73 -12 132.5t-89 90.5l-45 22l236 207l22 -16q100 -71 141 -187t13 -249 q-29 -139 -122.5 -256.5t-226 -185.5t-270.5 -68q-99 0 -184 39.5t-139.5 108.5t-78 162zM713 1409q13 64 68 109t118 45q64 0 99.5 -44.5t21.5 -109.5q-14 -63 -68 -108.5t-118 -45.5q-63 0 -98.5 45.5t-22.5 108.5z" />
<glyph unicode="&#xc0;" horiz-adv-x="1533" d="M59 0l1049 1606l369 -1606h-265l-45 190h-718l-123 -190h-267zM623 455h485l-127 549zM793 2095h245l211 -391h-245z" />
<glyph unicode="&#xc1;" horiz-adv-x="1533" d="M59 0l1049 1606l369 -1606h-265l-45 190h-718l-123 -190h-267zM623 455h485l-127 549zM1012 1704l379 391h245l-379 -391h-245z" />
<glyph unicode="&#xc2;" horiz-adv-x="1533" d="M59 0l1049 1606l369 -1606h-265l-45 190h-718l-123 -190h-267zM623 455h485l-127 549zM834 1702l378 391l211 -391h-233l-43 82l-82 -82h-231z" />
<glyph unicode="&#xc3;" horiz-adv-x="1533" d="M59 0l1049 1606l369 -1606h-265l-45 190h-718l-123 -190h-267zM623 455h485l-127 549zM750 1755l53 258l47 -26q56 -33 131 -33q64 0 206.5 37t215.5 37q95 0 164 -41l16 -11l-55 -256l-45 25q-62 35 -133 35q-64 0 -206 -38t-216 -38q-89 0 -160 41z" />
<glyph unicode="&#xc4;" horiz-adv-x="1533" d="M59 0l1049 1606l369 -1606h-265l-45 190h-718l-123 -190h-267zM623 455h485l-127 549zM766 1866q13 67 71 114.5t126 47.5q66 0 103 -47.5t24 -114.5q-13 -66 -72 -114t-125 -48q-67 0 -104 47.5t-23 114.5zM1237 1866q13 67 71.5 114.5t125.5 47.5t105 -47t24 -115 q-13 -66 -72 -114t-127 -48q-66 0 -103.5 48t-23.5 114z" />
<glyph unicode="&#xc5;" horiz-adv-x="1533" d="M59 0l1049 1606l369 -1606h-265l-45 190h-718l-123 -190h-267zM623 455h485l-127 549zM940 1950q22 102 108.5 173.5t188.5 71.5q101 0 158 -72t35 -173t-109 -173.5t-188 -72.5q-102 0 -158.5 72t-34.5 174zM1149 1950q-3 -15 5.5 -26t23.5 -11q14 0 27 11t16 26t-5 26 t-22 11q-15 0 -28.5 -11t-16.5 -26z" />
<glyph unicode="&#xc6;" horiz-adv-x="2160" d="M59 0l1020 1563h1272l-57 -263h-750l-61 -296h563l-55 -261h-564l-104 -483h750l-54 -260h-1011l41 197h-588l-127 -197h-275zM639 469h467l176 831h-100z" />
<glyph unicode="&#xc7;" horiz-adv-x="1576" d="M295 784q33 157 128 303.5t224 254t289 171.5t317 64q318 0 504 -213l23 -25l-211 -215l-25 31q-58 75 -147 115.5t-191 40.5q-115 0 -226 -45t-194.5 -119t-142.5 -169t-80 -194q-26 -115 -2 -212.5t81.5 -168.5t145 -111t189.5 -40q208 0 405 154l39 30l113 -217 l-29 -22q-129 -99 -276 -153.5t-291 -57.5q57 -35 81 -101t9 -141q-26 -121 -120.5 -197.5t-209.5 -76.5h-364l141 235h268q18 0 32 10.5t18 28.5q3 15 -6.5 28.5t-26.5 14.5h-236l146 244q-225 84 -326.5 293.5t-48.5 459.5z" />
<glyph unicode="&#xc8;" horiz-adv-x="1306" d="M154 0l331 1565h1014l-55 -262h-752l-63 -297h565l-55 -261h-566l-104 -485h752l-54 -260h-1013zM713 2095h245l211 -391h-245z" />
<glyph unicode="&#xc9;" horiz-adv-x="1306" d="M154 0h1013l54 260h-752l104 485h566l55 261h-565l63 297h752l55 262h-1014zM903 1704l379 391h246l-379 -391h-246z" />
<glyph unicode="&#xca;" horiz-adv-x="1306" d="M154 0h1013l54 260h-752l104 485h566l55 261h-565l63 297h752l55 262h-1014zM750 1702l378 391l211 -391h-233l-43 82l-82 -82h-231z" />
<glyph unicode="&#xcb;" horiz-adv-x="1306" d="M154 0h1013l54 260h-752l104 485h566l55 261h-565l63 297h752l55 262h-1014zM659 1866q13 67 71 114.5t126 47.5q66 0 103 -47.5t24 -114.5q-13 -66 -72 -114t-125 -48q-67 0 -104 47.5t-23 114.5zM1130 1866q13 67 71.5 114.5t125.5 47.5t105 -47t24 -115 q-13 -66 -72 -114t-127 -48q-66 0 -103.5 48t-23.5 114z" />
<glyph unicode="&#xcc;" horiz-adv-x="921" d="M141 0l54 260h186l221 1040h-186l57 263h639l-57 -263h-191l-221 -1040h191l-54 -260h-639zM459 2095h246l210 -391h-245z" />
<glyph unicode="&#xcd;" horiz-adv-x="921" d="M141 0h639l54 260h-191l221 1040h191l57 263h-639l-57 -263h186l-221 -1040h-186zM692 1704l379 391h246l-379 -391h-246z" />
<glyph unicode="&#xce;" horiz-adv-x="921" d="M141 0h639l54 260h-191l221 1040h191l57 263h-639l-57 -263h186l-221 -1040h-186zM520 1702l379 391l211 -391h-233l-43 82l-82 -82h-232z" />
<glyph unicode="&#xcf;" horiz-adv-x="921" d="M141 0h639l54 260h-191l221 1040h191l57 263h-639l-57 -263h186l-221 -1040h-186zM457 1866q13 67 70.5 114.5t125.5 47.5q66 0 103 -47.5t24 -114.5q-13 -66 -71.5 -114t-124.5 -48q-67 0 -104 47.5t-23 114.5zM928 1866q13 67 71.5 114.5t124.5 47.5q67 0 105 -47 t24 -115q-14 -66 -72.5 -114t-125.5 -48q-66 0 -103.5 48t-23.5 114z" />
<glyph unicode="&#xd0;" horiz-adv-x="1499" d="M55 651l56 260h260l139 652h420q127 0 237.5 -40t190 -111t132.5 -169.5t65 -215t-13 -247.5q-44 -211 -186.5 -391t-344.5 -284.5t-413 -104.5h-420l137 651h-260zM498 262h155q140 0 274.5 69.5t229 189t123.5 259.5q25 108 2 202.5t-76.5 165t-141 111.5t-192.5 41 h-155l-82 -389h332l-56 -260h-331z" />
<glyph unicode="&#xd1;" horiz-adv-x="1480" d="M154 0h262l202 954l713 -999l342 1610h-262l-203 -955l-712 1000zM662 1755l53 258l47 -26q56 -33 131 -33q64 0 206.5 37t215.5 37q95 0 164 -41l16 -11l-55 -256l-45 25q-62 35 -133 35q-64 0 -206 -38t-216 -38q-89 0 -160 41z" />
<glyph unicode="&#xd2;" d="M279 529q-13 118 12 251q35 162 129.5 309.5t224 254.5t290.5 170t322 63q130 0 243.5 -40.5t194.5 -113t135.5 -172.5t66.5 -219t-13 -252q-45 -216 -190.5 -399t-351.5 -290t-422 -107q-129 0 -242.5 40.5t-195 113.5t-136 173t-67.5 218zM559 780 q-30 -143 15.5 -264.5t152.5 -192.5t250 -71q144 0 281 71t233.5 192.5t126.5 264.5q17 89 9 168t-44 145.5t-90 115t-129.5 75.5t-161.5 27q-143 0 -280 -71t-234.5 -193.5t-128.5 -266.5zM950 2095h246l211 -391h-246z" />
<glyph unicode="&#xd3;" d="M279 529q-13 118 12 251q35 162 129.5 309.5t224 254.5t290.5 170t322 63q130 0 243.5 -40.5t194.5 -113t135.5 -172.5t66.5 -219t-13 -252q-45 -216 -190.5 -399t-351.5 -290t-422 -107q-129 0 -242.5 40.5t-195 113.5t-136 173t-67.5 218zM559 780 q-30 -143 15.5 -264.5t152.5 -192.5t250 -71q144 0 281 71t233.5 192.5t126.5 264.5q17 89 9 168t-44 145.5t-90 115t-129.5 75.5t-161.5 27q-143 0 -280 -71t-234.5 -193.5t-128.5 -266.5zM1163 1704l379 391h246l-379 -391h-246z" />
<glyph unicode="&#xd4;" d="M279 529q-13 118 12 251q35 162 129.5 309.5t224 254.5t290.5 170t322 63q130 0 243.5 -40.5t194.5 -113t135.5 -172.5t66.5 -219t-13 -252q-45 -216 -190.5 -399t-351.5 -290t-422 -107q-129 0 -242.5 40.5t-195 113.5t-136 173t-67.5 218zM559 780 q-30 -143 15.5 -264.5t152.5 -192.5t250 -71q144 0 281 71t233.5 192.5t126.5 264.5q17 89 9 168t-44 145.5t-90 115t-129.5 75.5t-161.5 27q-143 0 -280 -71t-234.5 -193.5t-128.5 -266.5zM987 1702l379 391l211 -391h-234l-43 82l-81 -82h-232z" />
<glyph unicode="&#xd5;" d="M279 529q-13 118 12 251q35 162 129.5 309.5t224 254.5t290.5 170t322 63q130 0 243.5 -40.5t194.5 -113t135.5 -172.5t66.5 -219t-13 -252q-45 -216 -190.5 -399t-351.5 -290t-422 -107q-129 0 -242.5 40.5t-195 113.5t-136 173t-67.5 218zM559 780 q-30 -143 15.5 -264.5t152.5 -192.5t250 -71q144 0 281 71t233.5 192.5t126.5 264.5q17 89 9 168t-44 145.5t-90 115t-129.5 75.5t-161.5 27q-143 0 -280 -71t-234.5 -193.5t-128.5 -266.5zM920 1755l53 258l47 -26q56 -33 131 -33q64 0 206.5 37t215.5 37q95 0 164 -41 l16 -11l-55 -256l-45 25q-62 35 -133 35q-64 0 -206 -38t-216 -38q-89 0 -160 41z" />
<glyph unicode="&#xd6;" d="M279 529q-13 118 12 251q35 162 129.5 309.5t224 254.5t290.5 170t322 63q130 0 243.5 -40.5t194.5 -113t135.5 -172.5t66.5 -219t-13 -252q-45 -216 -190.5 -399t-351.5 -290t-422 -107q-129 0 -242.5 40.5t-195 113.5t-136 173t-67.5 218zM559 780 q-30 -143 15.5 -264.5t152.5 -192.5t250 -71q144 0 281 71t233.5 192.5t126.5 264.5q17 89 9 168t-44 145.5t-90 115t-129.5 75.5t-161.5 27q-143 0 -280 -71t-234.5 -193.5t-128.5 -266.5zM930 1866q13 67 70.5 114.5t125.5 47.5q66 0 103 -47.5t24 -114.5 q-13 -66 -71.5 -114t-124.5 -48q-67 0 -104 47.5t-23 114.5zM1401 1866q13 67 71 114.5t125 47.5t105 -47t24 -115q-14 -66 -72.5 -114t-125.5 -48q-66 0 -103.5 48t-23.5 114z" />
<glyph unicode="&#xd7;" horiz-adv-x="1040" d="M244 391l229 189l-149 188l213 176l149 -188l227 188l138 -176l-228 -188l148 -189l-211 -176l-150 188l-227 -188z" />
<glyph unicode="&#xd8;" horiz-adv-x="1845" d="M170 0l225 233q-82 106 -109 247t5 300q35 162 129.5 309.5t223.5 254.5t290 170t323 63q196 0 351 -90l73 76h326l-227 -234q83 -109 110.5 -248t-6.5 -301q-45 -215 -190.5 -398.5t-352 -290.5t-421.5 -107q-195 0 -353 92l-71 -76h-326zM557 780q-37 -186 47 -329 l793 819q-87 41 -195 41q-144 0 -281.5 -71t-235 -193.5t-128.5 -266.5zM778 293q87 -41 199 -41q218 0 405.5 155t233.5 373q43 188 -45 332z" />
<glyph unicode="&#xd9;" horiz-adv-x="1337" d="M266 492l228 1071h262l-228 -1071q-22 -99 35.5 -170.5t157.5 -71.5q101 0 189 71t110 171l227 1071h262l-227 -1071q-29 -137 -122 -254t-224.5 -185.5t-269.5 -68.5q-137 0 -239.5 68.5t-146 185.5t-14.5 254zM705 2095h245l211 -391h-246z" />
<glyph unicode="&#xda;" horiz-adv-x="1337" d="M266 492q-29 -137 14.5 -254t146 -185.5t239.5 -68.5q138 0 269.5 68.5t224.5 185.5t122 254l227 1071h-262l-227 -1071q-22 -100 -110 -171t-189 -71q-100 0 -157.5 71.5t-35.5 170.5l228 1071h-262zM899 1704l379 391h246l-379 -391h-246z" />
<glyph unicode="&#xdb;" horiz-adv-x="1337" d="M266 492q-29 -137 14.5 -254t146 -185.5t239.5 -68.5q138 0 269.5 68.5t224.5 185.5t122 254l227 1071h-262l-227 -1071q-22 -100 -110 -171t-189 -71q-100 0 -157.5 71.5t-35.5 170.5l228 1071h-262zM723 1702l379 391l211 -391h-234l-43 82l-82 -82h-231z" />
<glyph unicode="&#xdc;" horiz-adv-x="1337" d="M266 492q-29 -137 14.5 -254t146 -185.5t239.5 -68.5q138 0 269.5 68.5t224.5 185.5t122 254l227 1071h-262l-227 -1071q-22 -100 -110 -171t-189 -71q-100 0 -157.5 71.5t-35.5 170.5l228 1071h-262zM678 1866q13 67 70.5 114.5t125.5 47.5q66 0 103 -47.5t24 -114.5 q-13 -66 -71.5 -114t-124.5 -48q-67 0 -104 47.5t-23 114.5zM1149 1866q13 67 71.5 114.5t125.5 47.5t105 -47t24 -115q-13 -66 -72 -114t-127 -48q-66 0 -103.5 48t-23.5 114z" />
<glyph unicode="&#xdd;" horiz-adv-x="1396" d="M381 1563h272l195 -858l559 858h272l-772 -1180l-80 -383h-258l80 383zM956 1704l379 391h246l-379 -391h-246z" />
<glyph unicode="&#xde;" horiz-adv-x="1247" d="M156 0l329 1561h263l-84 -398h340q170 0 264 -119.5t59 -289.5q-36 -165 -179.5 -286.5t-318.5 -121.5h-340l-71 -346h-262zM545 606h340q36 0 76 19q40 20 68.5 54.5t37.5 74.5q12 62 -23 105.5t-96 43.5h-340z" />
<glyph unicode="&#xdf;" horiz-adv-x="1349" d="M63 -442l347 1636q40 187 184.5 301.5t339.5 114.5q172 0 269 -116t63 -280q-25 -117 -133 -229q123 -63 179 -188.5t25 -274.5q-31 -145 -129 -268t-236.5 -194.5t-283.5 -71.5q-152 0 -262 78l-107 -508h-256zM526 530q-25 -115 39 -196.5t180 -81.5q115 0 213 78.5 t123 191.5q23 110 -41.5 187t-181.5 77h-174l53 248h80q64 0 118.5 52.5t72.5 127.5q11 56 -26.5 96t-102.5 40q-72 0 -135.5 -46t-79.5 -126z" />
<glyph unicode="&#xe0;" horiz-adv-x="1445" d="M229 582q34 162 143.5 300t264 218t315.5 80q186 0 318 -107l12 57h258l-242 -1132h-258l21 92q-176 -106 -363 -106q-161 0 -281.5 80t-171 218t-16.5 300zM492 590q-31 -139 47 -237.5t217 -98.5q135 0 250.5 91.5t152.5 225.5l8 37q20 134 -57 226t-211 92 q-138 0 -258 -99t-149 -237zM633 1651h246l211 -391h-246z" />
<glyph unicode="&#xe1;" horiz-adv-x="1445" d="M229 582q34 162 143.5 300t264 218t315.5 80q186 0 318 -107l12 57h258l-242 -1132h-258l21 92q-176 -106 -363 -106q-161 0 -281.5 80t-171 218t-16.5 300zM492 590q-31 -139 47 -237.5t217 -98.5q135 0 250.5 91.5t152.5 225.5l8 37q20 134 -57 226t-211 92 q-138 0 -258 -99t-149 -237zM850 1260l379 391h246l-379 -391h-246z" />
<glyph unicode="&#xe2;" horiz-adv-x="1445" d="M229 582q34 162 143.5 300t264 218t315.5 80q186 0 318 -107l12 57h258l-242 -1132h-258l21 92q-176 -106 -363 -106q-161 0 -281.5 80t-171 218t-16.5 300zM492 590q-31 -139 47 -237.5t217 -98.5q135 0 250.5 91.5t152.5 225.5l8 37q20 134 -57 226t-211 92 q-138 0 -258 -99t-149 -237zM690 1262l379 391l211 -391h-233l-43 81l-82 -81h-232z" />
<glyph unicode="&#xe3;" horiz-adv-x="1445" d="M229 582q34 162 143.5 300t264 218t315.5 80q186 0 318 -107l12 57h258l-242 -1132h-258l21 92q-176 -106 -363 -106q-161 0 -281.5 80t-171 218t-16.5 300zM492 590q-31 -139 47 -237.5t217 -98.5q135 0 250.5 91.5t152.5 225.5l8 37q20 134 -57 226t-211 92 q-138 0 -258 -99t-149 -237zM588 1311l53 258l47 -27q56 -33 131 -33q64 0 206.5 37t215.5 37q95 0 164 -41l14 -10l-53 -256l-47 24q-59 35 -131 35q-64 0 -206 -37.5t-216 -37.5q-89 0 -162 40z" />
<glyph unicode="&#xe4;" horiz-adv-x="1445" d="M229 582q34 162 143.5 300t264 218t315.5 80q186 0 318 -107l12 57h258l-242 -1132h-258l21 92q-176 -106 -363 -106q-161 0 -281.5 80t-171 218t-16.5 300zM492 590q-31 -139 47 -237.5t217 -98.5q135 0 250.5 91.5t152.5 225.5l8 37q20 134 -57 226t-211 92 q-138 0 -258 -99t-149 -237zM604 1421q13 67 71 114.5t126 47.5q66 0 103 -47.5t24 -114.5q-13 -66 -72 -113.5t-125 -47.5q-67 0 -104 47.5t-23 113.5zM1075 1421q13 67 71.5 114.5t125.5 47.5t105 -47t24 -115q-13 -66 -72 -113.5t-127 -47.5q-66 0 -103.5 47.5 t-23.5 113.5z" />
<glyph unicode="&#xe5;" horiz-adv-x="1445" d="M229 582q34 162 143.5 300t264 218t315.5 80q186 0 318 -107l12 57h258l-242 -1132h-258l21 92q-176 -106 -363 -106q-161 0 -281.5 80t-171 218t-16.5 300zM492 590q-31 -139 47 -237.5t217 -98.5q135 0 250.5 91.5t152.5 225.5l8 37q20 134 -57 226t-211 92 q-138 0 -258 -99t-149 -237zM778 1505q22 102 108.5 174t188.5 72q101 0 158 -72.5t35 -173.5t-109 -173t-188 -72q-102 0 -158.5 71.5t-34.5 173.5zM987 1505q-3 -15 5.5 -26t23.5 -11q14 0 27 11t16 26t-5 26t-22 11q-15 0 -28.5 -11t-16.5 -26z" />
<glyph unicode="&#xe6;" horiz-adv-x="2394" d="M228.5 354.5q-26.5 110.5 2.5 235.5q34 164 145 303.5t268 220t321 80.5q193 0 321 -107l10 46h263l-13 -58q177 119 383 119q155 0 273.5 -73.5t175.5 -200.5t39 -281q-5 -19 -9 -49q-25 -98 -47 -141l-14 -29h-883q29 -82 99.5 -129t165.5 -47q111 0 217 65l110 -207 q-183 -118 -383 -118q-204 0 -334 118l-20 -102h-262l18 92q-177 -108 -366 -108q-123 0 -225.5 47.5t-165.5 130t-89.5 193zM494 590q-31 -143 48.5 -244.5t221.5 -101.5q137 0 257 94.5t157 230.5l8 39q22 136 -59 231t-218 95q-143 0 -264.5 -101t-150.5 -243zM1483 672 h671q-5 115 -83 188.5t-197 73.5t-228.5 -74t-162.5 -188z" />
<glyph unicode="&#xe7;" horiz-adv-x="1169" d="M180 -520l135 231h265q17 0 29.5 11.5t17.5 29.5q3 16 -5.5 27.5t-25.5 11.5h-234l144 242q-164 59 -236.5 215t-33.5 340q24 117 93.5 226t165 189.5t216 128.5t241.5 48q196 0 326 -115l27 -23l-197 -202l-25 20q-78 66 -184 66q-147 0 -264.5 -103t-145.5 -235 q-31 -137 48.5 -237.5t216.5 -100.5q110 0 213 65l32 21l111 -203l-35 -22q-159 -98 -321 -113q65 -32 94 -99.5t12 -146.5q-25 -114 -121 -193t-209 -79h-350z" />
<glyph unicode="&#xe8;" horiz-adv-x="1413" d="M228.5 349q-25.5 109 2.5 233q33 159 143 297t265 219.5t315 81.5q151 0 268.5 -73t174.5 -199.5t37 -276.5q-3 -20 -13 -64q-9 -47 -43 -125l-12 -28h-870q28 -79 98 -125.5t162 -46.5q112 0 213 63l110 -205q-182 -116 -379 -116q-122 0 -222.5 47t-162 128t-87 190z M514 664h662q-3 113 -80.5 185.5t-196.5 72.5q-122 0 -227.5 -74.5t-157.5 -183.5zM635 1649h246l211 -392h-246z" />
<glyph unicode="&#xe9;" horiz-adv-x="1413" d="M228.5 349q-25.5 109 2.5 233q33 159 143 297t265 219.5t315 81.5q151 0 268.5 -73t174.5 -199.5t37 -276.5q-3 -20 -13 -64q-9 -47 -43 -125l-12 -28h-870q28 -79 98 -125.5t162 -46.5q112 0 213 63l110 -205q-182 -116 -379 -116q-122 0 -222.5 47t-162 128t-87 190z M514 664h662q-3 113 -80.5 185.5t-196.5 72.5q-122 0 -227.5 -74.5t-157.5 -183.5zM852 1260l379 391h246l-379 -391h-246z" />
<glyph unicode="&#xea;" horiz-adv-x="1413" d="M228.5 349q-25.5 109 2.5 233q33 159 143 297t265 219.5t315 81.5q151 0 268.5 -73t174.5 -199.5t37 -276.5q-3 -20 -13 -64q-9 -47 -43 -125l-12 -28h-870q28 -79 98 -125.5t162 -46.5q112 0 213 63l110 -205q-182 -116 -379 -116q-122 0 -222.5 47t-162 128t-87 190z M514 664h662q-3 113 -80.5 185.5t-196.5 72.5q-122 0 -227.5 -74.5t-157.5 -183.5zM686 1262l379 391l211 -391h-234l-43 81l-81 -81h-232z" />
<glyph unicode="&#xeb;" horiz-adv-x="1413" d="M228.5 349q-25.5 109 2.5 233q33 159 143 297t265 219.5t315 81.5q151 0 268.5 -73t174.5 -199.5t37 -276.5q-3 -20 -13 -64q-9 -47 -43 -125l-12 -28h-870q28 -79 98 -125.5t162 -46.5q112 0 213 63l110 -205q-182 -116 -379 -116q-122 0 -222.5 47t-162 128t-87 190z M514 664h662q-3 113 -80.5 185.5t-196.5 72.5q-122 0 -227.5 -74.5t-157.5 -183.5zM616 1423q15 68 72.5 115t124.5 47q66 0 104 -47.5t23 -114.5q-13 -66 -72 -113.5t-125 -47.5q-67 0 -104 47.5t-23 113.5zM1087 1423q15 67 73 114.5t124 47.5q68 0 106 -47.5t23 -114.5 q-13 -66 -72 -113.5t-127 -47.5q-66 0 -103.5 47.5t-23.5 113.5z" />
<glyph unicode="&#xec;" horiz-adv-x="573" d="M162 0l246 1159h262l-246 -1159h-262zM227 1651h246l211 -391h-246z" />
<glyph unicode="&#xed;" horiz-adv-x="575" d="M164 0l246 1159h262l-246 -1159h-262zM446 1257l379 392h246l-379 -392h-246z" />
<glyph unicode="&#xee;" horiz-adv-x="573" d="M162 0l246 1159h262l-246 -1159h-262zM268 1262l379 391l211 -391h-233l-43 81l-82 -81h-232z" />
<glyph unicode="&#xef;" horiz-adv-x="575" d="M164 0l246 1159h262l-246 -1159h-262zM205 1421q13 67 70.5 114.5t125.5 47.5q66 0 103 -47.5t24 -114.5q-13 -66 -71.5 -113.5t-124.5 -47.5q-67 0 -104 47.5t-23 113.5zM676 1421q13 67 71.5 114.5t124.5 47.5q67 0 105 -47t24 -115q-13 -66 -71.5 -113.5t-126.5 -47.5 q-66 0 -103.5 47.5t-23.5 113.5z" />
<glyph unicode="&#xf1;" horiz-adv-x="1286" d="M143 0l240 1133h254l-4 -19q132 66 262 66q136 0 236.5 -67.5t143 -183t13.5 -251.5l-143 -678h-254l143 678q22 103 -34.5 175.5t-157.5 72.5q-103 0 -191 -72.5t-110 -175.5l-144 -678h-254zM526 1311l54 258l47 -27q56 -33 131 -33q64 0 206.5 37t215.5 37 q94 0 163 -41l15 -10l-53 -256l-48 24q-59 35 -131 35q-64 0 -205.5 -37.5t-215.5 -37.5q-89 0 -162 40z" />
<glyph unicode="&#xf2;" horiz-adv-x="1411" d="M229 349q-26 109 2 233q34 162 143.5 300t264.5 218t317 80q122 0 223 -47t162.5 -128t87.5 -190t-2 -233q-34 -162 -143.5 -300t-264.5 -218t-317 -80q-122 0 -223 47t-162.5 128t-87.5 190zM487 582q-31 -141 49.5 -240.5t221.5 -99.5q140 0 260 99.5t151 240.5 q29 141 -49.5 240.5t-218.5 99.5q-141 0 -263 -99.5t-151 -240.5zM635 1649h246l211 -392h-246z" />
<glyph unicode="&#xf3;" horiz-adv-x="1411" d="M229 349q-26 109 2 233q34 162 143.5 300t264.5 218t317 80q122 0 223 -47t162.5 -128t87.5 -190t-2 -233q-34 -162 -143.5 -300t-264.5 -218t-317 -80q-122 0 -223 47t-162.5 128t-87.5 190zM487 582q-31 -141 49.5 -240.5t221.5 -99.5q140 0 260 99.5t151 240.5 q29 141 -49.5 240.5t-218.5 99.5q-141 0 -263 -99.5t-151 -240.5zM854 1260l379 391h246l-379 -391h-246z" />
<glyph unicode="&#xf4;" horiz-adv-x="1411" d="M229 349q-26 109 2 233q34 162 143.5 300t264.5 218t317 80q122 0 223 -47t162.5 -128t87.5 -190t-2 -233q-34 -162 -143.5 -300t-264.5 -218t-317 -80q-122 0 -223 47t-162.5 128t-87.5 190zM487 582q-31 -141 49.5 -240.5t221.5 -99.5q140 0 260 99.5t151 240.5 q29 141 -49.5 240.5t-218.5 99.5q-141 0 -263 -99.5t-151 -240.5zM688 1262l379 391l211 -391h-234l-43 81l-81 -81h-232z" />
<glyph unicode="&#xf5;" horiz-adv-x="1411" d="M229 349q-26 109 2 233q34 162 143.5 300t264.5 218t317 80q122 0 223 -47t162.5 -128t87.5 -190t-2 -233q-34 -162 -143.5 -300t-264.5 -218t-317 -80q-122 0 -223 47t-162.5 128t-87.5 190zM487 582q-31 -141 49.5 -240.5t221.5 -99.5q140 0 260 99.5t151 240.5 q29 141 -49.5 240.5t-218.5 99.5q-141 0 -263 -99.5t-151 -240.5zM598 1311l53 258l47 -27q56 -33 131 -33q64 0 206.5 37t215.5 37q95 0 164 -41l15 -10l-54 -256l-47 24q-59 35 -131 35q-64 0 -206 -37.5t-216 -37.5q-89 0 -162 40z" />
<glyph unicode="&#xf6;" horiz-adv-x="1411" d="M229 349q-26 109 2 233q34 162 143.5 300t264.5 218t317 80q122 0 223 -47t162.5 -128t87.5 -190t-2 -233q-34 -162 -143.5 -300t-264.5 -218t-317 -80q-122 0 -223 47t-162.5 128t-87.5 190zM487 582q-31 -141 49.5 -240.5t221.5 -99.5q140 0 260 99.5t151 240.5 q29 141 -49.5 240.5t-218.5 99.5q-141 0 -263 -99.5t-151 -240.5zM604 1421q13 67 71 114.5t126 47.5q66 0 103 -47.5t24 -114.5q-13 -66 -72 -113.5t-125 -47.5q-67 0 -104 47.5t-23 113.5zM1075 1421q13 67 71.5 114.5t125.5 47.5t105 -47t24 -115q-13 -66 -72 -113.5 t-127 -47.5q-66 0 -103.5 47.5t-23.5 113.5z" />
<glyph unicode="&#xf7;" horiz-adv-x="987" d="M205 459l51 239h780l-51 -239h-780zM397 154q14 63 68.5 108t118.5 45q63 0 98.5 -45t22.5 -108q-12 -63 -67 -108.5t-118 -45.5q-64 0 -99.5 45t-23.5 109zM580 1010q13 64 67 108.5t119 44.5q63 0 98.5 -44.5t22.5 -108.5q-12 -63 -67 -107.5t-118 -44.5 q-64 0 -99 44.5t-23 107.5z" />
<glyph unicode="&#xf8;" horiz-adv-x="1409" d="M113 -2l182 188q-113 166 -64 394q34 162 143.5 300t264.5 218t317 80q131 0 244 -58l39 41h303l-180 -186q110 -170 63 -395q-35 -162 -144.5 -299.5t-263.5 -217t-315 -79.5q-140 0 -245 57l-43 -43h-301zM487 580q-23 -101 15 -181l491 508q-47 13 -92 13 q-141 0 -263 -99.5t-151 -240.5zM664 254q41 -14 92 -14q139 0 260.5 100t152.5 240q19 104 -14 182z" />
<glyph unicode="&#xf9;" horiz-adv-x="1302" d="M252 483l143 676h254l-143 -676q-22 -102 34 -173.5t158 -71.5q101 0 189 72t110 173l144 676h252l-246 -1159h-252l10 49q-130 -65 -260 -65q-136 0 -236.5 67t-143 182t-13.5 250zM573 1647h246l213 -392h-246z" />
<glyph unicode="&#xfa;" horiz-adv-x="1302" d="M252 483l143 676h254l-143 -676q-22 -102 34 -173.5t158 -71.5q101 0 189 72t110 173l144 676h252l-246 -1159h-252l10 49q-130 -65 -260 -65q-136 0 -236.5 67t-143 182t-13.5 250zM791 1257l378 392h246l-379 -392h-245z" />
<glyph unicode="&#xfb;" horiz-adv-x="1302" d="M252 483l143 676h254l-143 -676q-22 -102 34 -173.5t158 -71.5q101 0 189 72t110 173l144 676h252l-246 -1159h-252l10 49q-130 -65 -260 -65q-136 0 -236.5 67t-143 182t-13.5 250zM612 1262l379 391l211 -391h-233l-43 81l-82 -81h-232z" />
<glyph unicode="&#xfc;" horiz-adv-x="1302" d="M252 483l143 676h254l-143 -676q-22 -102 34 -173.5t158 -71.5q101 0 189 72t110 173l144 676h252l-246 -1159h-252l10 49q-130 -65 -260 -65q-136 0 -236.5 67t-143 182t-13.5 250zM557 1419q13 67 71 114.5t126 47.5q66 0 103 -47.5t24 -114.5q-13 -66 -72 -114 t-125 -48q-67 0 -104 47.5t-23 114.5zM1028 1419q13 67 71.5 114.5t125.5 47.5t105 -47t24 -115q-13 -66 -72 -114t-127 -48q-66 0 -103.5 48t-23.5 114z" />
<glyph unicode="&#xfd;" horiz-adv-x="1282" d="M184 -449h275l1020 1612h-277l-467 -741l-153 741h-275l221 -1067zM784 1257l379 392h246l-379 -392h-246z" />
<glyph unicode="&#xfe;" horiz-adv-x="1431" d="M59 -446l428 2009h258l-104 -490q176 107 363 107q122 0 223 -47t162.5 -128t87.5 -190t-2 -233q-34 -162 -143.5 -300t-264.5 -218t-317 -80q-184 0 -318 106l-115 -536h-258zM532 563q-22 -135 58 -228t215 -93q141 0 263 100t151 240q29 141 -50.5 241.5t-220.5 100.5 q-135 0 -252.5 -93.5t-154.5 -230.5z" />
<glyph unicode="&#xff;" horiz-adv-x="1282" d="M184 -449h275l1020 1612h-277l-467 -741l-153 741h-275l221 -1067zM553 1421q13 67 71 114.5t126 47.5q66 0 103 -47.5t24 -114.5q-13 -66 -72 -113.5t-125 -47.5q-67 0 -104 47.5t-23 113.5zM1024 1421q13 67 71.5 114.5t125.5 47.5t105 -47t24 -115q-13 -66 -72 -113.5 t-127 -47.5q-66 0 -103.5 47.5t-23.5 113.5z" />
<glyph unicode="&#x152;" horiz-adv-x="2625" d="M291 780q35 162 129.5 309.5t223.5 254.5t290 170t323 63q146 0 272 -52t214 -149l41 187h1032l-57 -267h-764l-62 -286h574l-56 -267h-573l-102 -477h764l-56 -266h-1032l39 186q-131 -97 -278.5 -149.5t-292.5 -52.5q-216 0 -377 107t-229 290t-23 399zM557 780 q-30 -143 15.5 -264.5t153 -192.5t251.5 -71q218 0 405.5 155t233.5 373q31 144 -13.5 266.5t-151 193.5t-249.5 71q-144 0 -281.5 -71t-235 -193.5t-128.5 -266.5z" />
<glyph unicode="&#x153;" horiz-adv-x="2371" d="M231 580q34 162 143.5 300t265 218t318.5 80q141 0 252.5 -62.5t171.5 -175.5q108 111 248.5 174.5t280.5 63.5q152 0 269.5 -73t174 -199.5t37.5 -276.5q-3 -13 -8 -49q-25 -96 -47 -140l-15 -28h-872q30 -80 98.5 -127t161.5 -47q112 0 215 65l109 -207 q-179 -116 -379 -116q-141 0 -252 62t-174 175q-107 -112 -246.5 -174.5t-280.5 -62.5q-163 0 -284 80t-171.5 218.5t-15.5 301.5zM489 580q-31 -141 48.5 -241.5t220.5 -100.5q140 0 261 100.5t152 241.5q29 140 -50 240t-218 100q-141 0 -263 -100t-151 -240zM1470 659 h662q-3 114 -80 187.5t-197 73.5q-119 0 -228.5 -76t-156.5 -185z" />
<glyph unicode="&#x178;" horiz-adv-x="1396" d="M381 1563h272l195 -858l559 858h272l-772 -1180l-80 -383h-258l80 383zM698 1866q13 67 71 114.5t126 47.5q66 0 103 -47.5t24 -114.5q-13 -66 -72 -114t-125 -48q-67 0 -104 47.5t-23 114.5zM1169 1866q13 67 71.5 114.5t125.5 47.5t105 -47t24 -115q-13 -66 -72 -114 t-127 -48q-66 0 -103.5 48t-23.5 114z" />
<glyph unicode="&#x2c6;" horiz-adv-x="886" d="M506 1704l379 391l211 -391h-234l-43 82l-82 -82h-231z" />
<glyph unicode="&#x2dc;" horiz-adv-x="1040" d="M504 1755l53 258l47 -26q56 -33 131 -33q64 0 206.5 37t215.5 37q95 0 164 -41l16 -11l-55 -256l-45 25q-62 35 -133 35q-64 0 -206 -38t-216 -38q-89 0 -160 41z" />
<glyph unicode="&#x2000;" horiz-adv-x="1097" />
<glyph unicode="&#x2001;" horiz-adv-x="2195" />
<glyph unicode="&#x2002;" horiz-adv-x="1097" />
<glyph unicode="&#x2003;" horiz-adv-x="2195" />
<glyph unicode="&#x2004;" horiz-adv-x="731" />
<glyph unicode="&#x2005;" horiz-adv-x="548" />
<glyph unicode="&#x2006;" horiz-adv-x="365" />
<glyph unicode="&#x2007;" horiz-adv-x="365" />
<glyph unicode="&#x2008;" horiz-adv-x="274" />
<glyph unicode="&#x2009;" horiz-adv-x="439" />
<glyph unicode="&#x200a;" horiz-adv-x="121" />
<glyph unicode="&#x2010;" horiz-adv-x="1048" d="M231 459l52 239h780l-51 -239h-781z" />
<glyph unicode="&#x2011;" horiz-adv-x="1048" d="M231 459l52 239h780l-51 -239h-781z" />
<glyph unicode="&#x2012;" horiz-adv-x="1048" d="M231 459l52 239h780l-51 -239h-781z" />
<glyph unicode="&#x2013;" horiz-adv-x="1595" d="M229 467l52 240h1339l-51 -240h-1340z" />
<glyph unicode="&#x2014;" horiz-adv-x="2039" d="M229 465l52 240h1785l-51 -240h-1786z" />
<glyph unicode="&#x2018;" horiz-adv-x="512" d="M365 1294q10 46 45 90l151 179h191l-113 -131q66 -50 47 -138q-14 -66 -72 -113.5t-125 -47.5q-66 0 -102 47.5t-22 113.5z" />
<glyph unicode="&#x2019;" horiz-adv-x="524" d="M342 1133l113 131q-65 49 -47 137q14 66 71.5 114t124.5 48q66 0 102.5 -48t22.5 -114q-10 -46 -45 -90l-152 -178h-190z" />
<glyph unicode="&#x201a;" horiz-adv-x="516" d="M125 -123l111 131q-64 51 -46 137q14 66 71 114t124 48q66 0 103.5 -48t23.5 -114q-11 -51 -47 -90l-150 -178h-190z" />
<glyph unicode="&#x201c;" horiz-adv-x="1048" d="M387 1294q8 40 47 90l152 179h190l-112 -131q66 -50 47 -138q-14 -66 -72 -113.5t-125 -47.5q-66 0 -103.5 47.5t-23.5 113.5zM885 1294q9 45 45 90l151 179h191l-111 -131q63 -50 45 -138q-14 -66 -71.5 -113.5t-124.5 -47.5q-66 0 -102.5 47.5t-22.5 113.5z" />
<glyph unicode="&#x201d;" horiz-adv-x="1034" d="M354 1133l111 131q-63 50 -45 137q14 66 71.5 114t124.5 48q66 0 102.5 -48t22.5 -114q-9 -45 -45 -90l-151 -178h-191zM850 1133l113 131q-66 50 -48 137q14 66 72 114t125 48q66 0 103.5 -48t23.5 -114q-8 -40 -47 -90l-152 -178h-190z" />
<glyph unicode="&#x201e;" horiz-adv-x="1071" d="M96 -123l109 131q-61 51 -43 137q14 66 70.5 114t123.5 48q66 0 103.5 -48t23.5 -114q-10 -50 -47 -90l-149 -178h-191zM592 -123l110 131q-63 50 -45 137q14 66 71 114t124 48q66 0 104 -48t25 -114q-12 -48 -49 -90l-150 -178h-190z" />
<glyph unicode="&#x2022;" horiz-adv-x="708" d="M293 580q15 75 81 129.5t142 54.5q75 0 116.5 -54.5t26.5 -129.5q-17 -75 -81.5 -129t-139.5 -54q-77 0 -119.5 54t-25.5 129z" />
<glyph unicode="&#x2026;" horiz-adv-x="1501" d="M162 154q13 63 68 108t118 45t98.5 -45t22.5 -108q-12 -63 -66.5 -108.5t-117.5 -45.5t-99 45.5t-24 108.5zM623 154q14 63 68 108t118 45q63 0 98.5 -45t22.5 -108q-12 -63 -67 -108.5t-118 -45.5q-64 0 -99 45t-23 109zM1083 154q14 63 68 108t117 45q64 0 99.5 -45 t21.5 -108q-12 -63 -66.5 -108.5t-118.5 -45.5q-63 0 -98 45.5t-23 108.5z" />
<glyph unicode="&#x202f;" horiz-adv-x="439" />
<glyph unicode="&#x205f;" horiz-adv-x="548" />
<glyph unicode="&#x20ac;" horiz-adv-x="1474" d="M205 438l59 281h189q2 18 10 59q8 40 14 60h-188l61 280h262q142 206 363 331.5t455 125.5q142 0 260 -47l-160 -246q-83 27 -158 27q-119 0 -234.5 -50.5t-209.5 -140.5h219l-62 -280h-340q-12 -40 -16 -60q-4 -21 -8 -59h340l-60 -281h-219q56 -89 150.5 -138.5 t214.5 -49.5q85 0 168 24l55 -245q-136 -47 -278 -47q-234 0 -402 125t-223 331h-262z" />
<glyph unicode="&#x2122;" horiz-adv-x="1908" d="M299 721l37 172h588l-37 -172h-207l-152 -721h-172l152 721h-209zM971 0l198 936l279 -514l500 514l-199 -936h-166l96 455l-286 -295l-158 295l-96 -455h-168z" />
<glyph unicode="&#x25fc;" horiz-adv-x="1157" d="M0 0v1157h1157v-1157h-1157z" />
</font>
</defs>
</svg>
